<svg width="130px" height="130px" viewBox="0 0 5.2 5.2" fill="none" xmlns="http://www.w3.org/2000/svg"><g clip-path="url(#clip0_901_2858)"><path d="M5.038 0.325v4.225s0 0.488 -0.488 0.488H0.65c0.488 0 0.488 -0.488 0.488 -0.488V0.325s0 -0.163 0.163 -0.163h3.575s0.163 0 0.163 0.163" fill="#FFC44D"/><path d="M1.137 1.788v2.763s0 0.488 -0.488 0.488c0 0 -0.488 -0.01 -0.488 -0.488V1.95s0 -0.163 0.163 -0.163z" fill="#668077"/><path d="M1.137 4.063V0.326S1.137 0.163 1.3 0.163h3.575s0.163 0.001 0.163 0.163v4.225S5.038 5.038 4.55 5.038H0.65s-0.488 0.001 -0.488 -0.649v-2.438S0.163 1.788 0.325 1.788h0.325m1.463 -0.65h0.813m-0.813 0.65h1.95m-1.95 0.65h1.95m-1.95 0.65h1.95m-1.95 0.65h1.95" stroke="#000000" stroke-width="0.325" stroke-linecap="round" stroke-linejoin="round"/></g><defs><clipPath id="clip0_901_2858"><path width="32" height="32" fill="white" d="M0 0H5.2V5.2H0V0z"/></clipPath></defs></svg>