<svg width="130px" height="130px" viewBox="0 0 20.8 20.8" xmlns="http://www.w3.org/2000/svg" xmlns:xlink="http://www.w3.org/1999/xlink" aria-hidden="true" role="img" class="iconify iconify--noto" preserveAspectRatio="xMidYMid meet"><path d="M19.18 16.627 11.747 19.988c-0.458 0.216 -0.936 0.195 -1.375 -0.058L0.99 15.164c-0.268 -0.172 -0.348 -0.424 -0.332 -0.6s0.057 -0.366 0.528 -0.502l0.696 -0.257 9.412 5.13 6.688 -2.733z" fill="#01579b"/><path d="M11.658 19.45a1.292 1.292 0 0 1 -1.18 -0.042L1.318 14.792c-0.13 -0.072 -0.169 -0.236 -0.091 -0.362 0.202 -0.333 0.572 -1.386 -0.039 -2.26l10.345 4.981z" fill="#f5f5f5"/><path d="m18.783 16.247 -7.126 3.203c-0.236 0.102 -0.705 0.284 -1.246 -0.08 0.427 0.031 0.728 -0.146 0.882 -0.434 0.151 -0.28 0.106 -0.738 -0.078 -0.996 -0.112 -0.156 -0.413 -0.405 -0.544 -0.544L18.379 14.381c0.683 -0.281 1.323 0.14 1.425 0.652 0.114 0.579 -0.624 1.051 -1.021 1.214" fill="#94c6d6"/><path d="m19.139 14.131 -7.356 3.283c-0.463 0.184 -0.982 0.159 -1.425 -0.065L0.959 12.574c-0.091 -0.046 -0.226 -0.171 -0.28 -0.341 -0.088 -0.284 0.023 -0.642 0.356 -0.756l10.186 5.192 6.975 -2.985z" fill="#01579b"/><path d="m19.693 14.607 -0.801 -0.291 -1.651 0.096 -5.457 2.436c-0.463 0.184 -0.982 0.159 -1.425 -0.065L0.959 12.01c-0.242 -0.124 -0.19 -0.483 0.076 -0.533l6.775 -3.031c0.193 -0.036 0.392 -0.015 0.572 0.062l9.667 4.609s1.536 1.051 1.644 1.49" fill="#0091ea"/><path d="M17.149 14.459s1.017 -0.398 1.817 -0.362 1.077 0.596 1.077 0.596c-0.151 -0.687 -0.861 -1.038 -0.861 -1.038l-10.563 -5.319c-0.073 -0.031 -0.343 -0.094 -0.757 0.076 -0.335 0.138 -1.428 0.65 -1.428 0.65z" fill="#616161"/><path d="M20.088 14.823c-0.076 -0.304 -0.265 -0.629 -0.613 -0.786 -0.458 -0.206 -1.111 -0.153 -1.529 0.065l-0.798 0.354v0.562l1.009 -0.448c0.982 -0.437 1.417 0.218 1.454 0.372 0.156 0.629 -0.146 0.993 -1.038 1.402l-1.45 0.653v0.566l1.667 -0.743c0.738 -0.296 1.58 -0.852 1.297 -1.997" fill="#424242"/><g><path fill="#01579b" d="M5.364 14.675 2.558 10.796l0.44 -0.197 3.157 4.339z"/></g><g><path fill="#01579b" d="m8.963 16.463 -0.501 -0.397 8.686 -1.773v0.284l-1.217 0.461z"/></g><g><path d="M2.405 7.504 13.375 5.671l4.792 5.276c0.242 0.255 0.111 0.678 -0.234 0.747l-11.326 2.324z" fill="#9ccc65"/><path d="M17.934 11.24 6.685 13.518l-0.036 0.536 11.284 -2.314c0.319 -0.067 0.452 -0.431 0.278 -0.687 -0.062 0.091 -0.156 0.163 -0.278 0.187" fill="#689f38"/><path d="M18.54 13.699c0.119 0.189 0.011 0.437 -0.206 0.481L7.979 16.279c-0.622 0.128 -1.233 -0.28 -1.289 -0.913 -0.047 -0.536 0.315 -1.022 0.843 -1.133l9.958 -2.236z" fill="#689f38"/><path d="M9.033 13.016 4.909 7.114l-2.353 0.622c-0.544 0.541 -0.341 1.43 -0.341 1.43S5.817 14.948 6.386 15.688s1.399 0.624 1.399 0.624l1.402 -0.283 -0.146 -2.616z" fill="#616161"/><path d="M9.033 13.055 7.053 13.465c-0.541 0.122 -0.639 0.63 -0.639 0.63L1.631 7.243s-0.681 0.824 -0.229 1.524L6.386 15.688c0.544 0.775 1.399 0.63 1.399 0.63l1.402 -0.283 -0.145 -2.564z" fill="#424242"/><path d="M17.916 13.488c0.05 0.111 -0.015 0.239 -0.133 0.263L7.881 15.782c-0.622 0.128 -1.063 -0.284 -1.04 -0.847 0.029 -0.71 0.427 -1.011 0.954 -1.12l9.95 -2.033s-0.338 0.38 -0.08 1.092c0.088 0.245 0.182 0.463 0.25 0.613" fill="#b9e4ea"/><path fill="none" stroke="#424242" stroke-width="0.33653750000000004" stroke-miterlimit="10" d="M7.347 13.601 3.104 7.598"/></g><path fill="#424242" d="M7.68 11.042 2.223 8.292l-0.221 0.436 6.305 3.213z"/><path fill="#689f38" d="m17.678 10.405 -0.4 -0.439L11.131 12.787 7.68 11.079l0.588 0.842 2.286 1.168 1.703 -0.262z"/><g><path d="M19.178 9.319 11.747 12.68c-0.458 0.216 -0.936 0.195 -1.375 -0.058L0.99 7.857c-0.268 -0.172 -0.348 -0.424 -0.332 -0.6s0.057 -0.366 0.528 -0.502l0.44 -0.163 9.639 4.73 7.828 -3.239z" fill="#c62828"/><path d="M11.656 12.142a1.292 1.292 0 0 1 -1.18 -0.042L1.316 7.485c-0.13 -0.072 -0.169 -0.236 -0.091 -0.362 0.202 -0.333 0.572 -1.386 -0.039 -2.26l10.114 5.145z" fill="#f5f5f5"/><path d="M18.782 8.939 11.656 12.142c-0.236 0.102 -0.705 0.284 -1.246 -0.08 0.427 0.031 0.728 -0.146 0.882 -0.434 0.151 -0.28 0.106 -0.738 -0.078 -0.996 -0.112 -0.156 -0.413 -0.405 -0.544 -0.544l7.707 -3.014c0.683 -0.281 1.323 0.14 1.425 0.652 0.114 0.579 -0.624 1.051 -1.021 1.214" fill="#94c6d6"/><path d="m19.139 6.823 -7.356 3.283c-0.463 0.184 -0.982 0.159 -1.425 -0.065L0.957 5.267c-0.098 -0.049 -0.244 -0.174 -0.291 -0.351 -0.07 -0.263 0.021 -0.609 0.367 -0.746l8.614 -1.825z" fill="#c62828"/><path d="m19.692 7.3 -0.801 -0.291 -1.651 0.096 -5.457 2.436c-0.463 0.184 -0.982 0.159 -1.425 -0.065L0.957 4.701c-0.242 -0.124 -0.156 -0.45 0.076 -0.533l6.776 -3.029c0.193 -0.036 0.392 -0.015 0.572 0.062l9.667 4.609s1.534 1.05 1.643 1.49" fill="#f44336"/><path d="M17.149 7.15s0.847 -0.297 1.646 -0.262 1.25 0.496 1.25 0.496c-0.164 -0.734 -0.861 -1.038 -0.861 -1.038l-10.563 -5.319c-0.073 -0.031 -0.343 -0.094 -0.757 0.076 -0.335 0.138 -1.428 0.65 -1.428 0.65z" fill="#616161"/><path fill="#424242" d="M18.116 6.802 7.308 1.35l0.358 -0.161 10.992 5.509z"/><path d="M20.087 7.516c-0.076 -0.304 -0.205 -0.598 -0.567 -0.751 -0.463 -0.195 -0.886 -0.236 -1.575 0.029l-0.798 0.354v0.562l1.009 -0.448c0.512 -0.24 1.266 -0.189 1.454 0.372 0.206 0.614 -0.146 0.993 -1.038 1.402l-1.45 0.653v0.566l1.667 -0.743c0.739 -0.296 1.581 -0.852 1.297 -1.997" fill="#424242"/></g></svg>