<svg width="130px" height="130px" viewBox="-1.747 0 59.415 59.415" xmlns="http://www.w3.org/2000/svg"><defs><style>.a{fill:#ffffff;}.b{fill:#fed296;}.c{fill:#9ed799;}.d{fill:#b5886a;}.e{fill:#211715;}.f{fill:#a0a0a0;}.g{fill:#3d8dcc;}.h{fill:#a98a75;}.i{fill:#85807f;}</style></defs><path class="a" d="M36.346 12.099a7.914 7.914 0 0 0 1.008 -1.479l0.002 -0.005a2.899 2.899 0 0 1 -3.294 -0.496c0.036 0.249 0.067 0.469 0.067 0.469a5.866 5.866 0 0 0 0.857 2.345 0.406 0.406 0 0 0 0.133 0.146c0.124 0.066 0.264 -0.031 0.373 -0.126a8.775 8.775 0 0 0 0.853 -0.854"/><path class="b" d="M46.147 43.815v1.614c0.876 0.505 3.329 1.914 4.14 2.382a0.923 0.923 0 0 0 0.833 0l4.061 -2.345a0.821 0.821 0 0 0 0.411 -0.712V42.916Z"/><path class="b" d="M33.722 51.121v1.614c0.876 0.505 3.329 1.914 4.14 2.382a0.923 0.923 0 0 0 0.833 0l4.061 -2.345a0.821 0.821 0 0 0 0.411 -0.712v-1.836Z"/><path class="c" d="m20.578 21.682 8.947 -5.165c0.001 -1.928 0.01 -15.729 0.01 -16.194C26.802 1.901 2.564 15.897 0.336 17.184c-0.002 0.384 -0.007 14.229 -0.007 16.185l18.297 -10.563 1.742 -1.006Z"/><path class="d" d="M0.658 35.465 0.325 35.658c0 -0.114 0 -0.982 0.001 -2.285 -0.871 0.502 29.845 -17.228 29.203 -16.858 -0.001 1.325 -0.001 2.197 -0.001 2.28Z"/><path class="e" d="M0.65 35.658v-2.007l0.002 -4.353 0.002 -5.211 0.002 -4.513v-1.53c0 -0.264 0.018 -0.534 0 -0.798 -0.001 -0.02 0 -0.04 0 -0.059l-0.161 0.281q0.616 -0.356 1.232 -0.712l2.25 -1.3L7.004 13.708 10.563 11.654l3.847 -2.221 3.892 -2.248 3.695 -2.133 3.254 -1.879 2.57 -1.484 1.648 -0.952 0.23 -0.133 -0.489 -0.281v1.991q0 2.186 -0.002 4.372l-0.002 5.198q0 2.268 -0.002 4.535v1.532c0 0.259 -0.016 0.524 0 0.783 0.001 0.019 0 0.04 0 0.059l0.161 -0.281 -0.928 0.536 -2.146 1.239 -3.087 1.783 -3.726 2.152 -4.051 2.339 -4.116 2.377 -3.868 2.234 -3.312 1.912 -2.489 1.437 -1.352 0.78 -0.127 0.073c-0.362 0.209 -0.035 0.771 0.328 0.561l2.166 -1.251 4.701 -2.715 6.073 -3.507 6.392 -3.691 5.553 -3.207 3.575 -2.064c0.237 -0.137 0.483 -0.266 0.715 -0.412 0.181 -0.114 0.189 -0.269 0.189 -0.453v-0.595l0.002 -5.459 0.003 -7.178 0.002 -4.771V0.324a0.328 0.328 0 0 0 -0.489 -0.281l-2.774 1.602 -4.98 2.876 -6.14 3.545 -6.267 3.619L3.921 14.739 0.601 16.656c-0.13 0.075 -0.263 0.146 -0.39 0.226 -0.198 0.123 -0.201 0.282 -0.201 0.479v1.429l-0.003 5.704q-0.003 3.322 -0.005 6.643L0 35.371v0.286c0 0.417 0.65 0.419 0.65 0"/><path class="e" d="m29.361 16.237 -0.933 0.538 -2.161 1.248 -3.11 1.795 -3.734 2.155 -4.091 2.361 -4.132 2.385 -3.857 2.226 -3.316 1.915 -2.449 1.414 -1.304 0.753 -0.108 0.062c-0.362 0.209 -0.035 0.771 0.328 0.561l0.976 -0.564 2.196 -1.268 3.135 -1.81 3.749 -2.164q2.047 -1.183 4.097 -2.365l4.128 -2.383 3.844 -2.219 3.294 -1.901 2.417 -1.395 1.262 -0.729 0.097 -0.056c0.362 -0.209 0.035 -0.771 -0.328 -0.561Z"/><path class="e" d="M55.265 44.964q0 2.021 0.001 4.041c0 0.418 0.65 0.419 0.65 0q0 -2.02 -0.001 -4.041c0 -0.418 -0.65 -0.419 -0.65 0"/><path class="e" d="M50.43 47.867v3.929c0 0.418 0.65 0.419 0.65 0v-3.929c0 -0.418 -0.65 -0.419 -0.65 0"/><path class="a" d="M46.115 48.655q0.017 -0.011 0.033 -0.023c0 -0.374 0 -0.838 -0.001 -1.312 -0.209 -0.009 -0.431 -0.016 -0.624 -0.026a1.17 1.17 0 0 1 -0.684 -0.179 0.949 0.949 0 0 1 -0.17 -0.417c-0.008 -0.049 -0.016 -0.097 -0.023 -0.145 -0.214 -0.063 -0.726 0.006 -0.936 0.057a0.852 0.852 0 0 0 -0.493 0.396 0.58 0.58 0 0 0 -0.069 0.281 0.598 0.598 0 0 0 0.098 0.392 1.3 1.3 0 0 0 0.088 0.112c0.341 0.388 0.829 0.609 1.306 0.806a2.47 2.47 0 0 0 0.835 0.231 1.105 1.105 0 0 0 0.64 -0.173"/><path class="a" d="M44.689 46.788a1.3 1.3 0 0 1 -0.02 -0.089c-0.121 -0.735 -0.2 -1.453 -0.261 -2.248 -0.02 -0.265 -0.028 -0.647 -0.046 -0.912l-0.006 -0.081c0.54 0.238 1.229 0.519 1.71 0.739l0.081 0.037v3.087c-0.209 -0.009 -0.431 -0.016 -0.624 -0.026a1.17 1.17 0 0 1 -0.684 -0.179 0.806 0.806 0 0 1 -0.15 -0.328"/><path class="f" d="M50.722 44.279c-0.184 0.227 -0.551 0.362 -0.885 0.415a2.795 2.795 0 0 1 -0.859 -0.022c-1.078 -0.234 -1.908 -0.645 -2.831 -1.161v0.724l-0.081 -0.039c-0.504 -0.231 -1.239 -0.529 -1.789 -0.774a0.325 0.325 0 0 1 -0.192 -0.311q0.011 -0.241 0.022 -0.475c0.177 -1.07 1.037 -1.658 2.025 -1.868l4.687 -0.587Z"/><path class="e" d="M45.804 43.692a12.122 12.122 0 0 0 2.603 1.174c0.8 0.227 1.928 0.346 2.546 -0.356 0.276 -0.313 -0.182 -0.774 -0.46 -0.46 -0.232 0.263 -0.626 0.338 -0.962 0.343a3.656 3.656 0 0 1 -1.151 -0.214 11.83 11.83 0 0 1 -2.249 -1.048c-0.365 -0.206 -0.693 0.355 -0.328 0.561"/><path class="e" d="M46.045 40.455c-0.979 0.214 -1.88 0.811 -2.185 1.806a2.746 2.746 0 0 0 -0.101 0.85c0.008 0.365 0.24 0.543 0.548 0.677 0.531 0.231 1.067 0.448 1.594 0.688a0.335 0.335 0 0 0 0.445 -0.117 0.328 0.328 0 0 0 -0.117 -0.445c-0.458 -0.209 -0.925 -0.401 -1.388 -0.599q-0.153 -0.065 -0.305 -0.132c-0.031 -0.013 -0.133 -0.062 -0.131 -0.059 0.012 0.023 0.008 -0.085 0.007 -0.074a2.405 2.405 0 0 1 0.09 -0.663c0.25 -0.753 0.985 -1.147 1.717 -1.307 0.408 -0.089 0.236 -0.716 -0.173 -0.627"/><path class="e" d="M46.127 48.165c-0.176 0.336 -0.571 0.385 -0.908 0.296a4.534 4.534 0 0 1 -1.257 -0.559c-0.249 -0.16 -0.68 -0.482 -0.413 -0.806 0.213 -0.259 0.67 -0.258 0.978 -0.237a0.328 0.328 0 0 0 0.325 -0.325 0.332 0.332 0 0 0 -0.325 -0.325 3.023 3.023 0 0 0 -0.639 0.041 1.3 1.3 0 0 0 -0.567 0.184 1.054 1.054 0 0 0 -0.409 1.319c0.197 0.409 0.656 0.699 1.047 0.895a4.258 4.258 0 0 0 1.428 0.5 1.328 1.328 0 0 0 1.3 -0.654c0.194 -0.37 -0.367 -0.699 -0.561 -0.328"/><path class="e" d="M44.036 43.539c0.061 0.926 0.115 1.846 0.245 2.766 0.056 0.395 0.081 0.917 0.467 1.141 0.403 0.235 0.955 0.182 1.404 0.2 0.418 0.016 0.417 -0.634 0 -0.65 -0.21 -0.008 -0.42 -0.015 -0.63 -0.026a0.91 0.91 0 0 1 -0.471 -0.1c0.041 0.028 0.02 0.038 0.006 -0.008 -0.01 -0.035 -0.028 -0.069 -0.039 -0.104a1.95 1.95 0 0 1 -0.059 -0.282c-0.032 -0.2 -0.061 -0.4 -0.086 -0.601 -0.098 -0.778 -0.136 -1.555 -0.188 -2.336 -0.027 -0.415 -0.677 -0.418 -0.65 0Z"/><path class="a" d="M41.852 40.755a0.255 0.255 0 0 1 -0.257 0l-8.112 -4.688a0.255 0.255 0 0 1 -0.103 -0.112l-0.026 0.003V38.724l0.182 0.105 8.268 4.777 11.946 -6.898v-2.824Z"/><path class="e" d="m53.586 36.428 -4.031 2.328 -6.253 3.611 -1.662 0.96h0.328q-1.428 -0.825 -2.856 -1.65l-4.343 -2.51 -1.068 -0.617c-0.363 -0.209 -0.691 0.352 -0.328 0.561q1.41 0.814 2.819 1.629l4.354 2.516 1.094 0.633a0.33 0.33 0 0 0 0.328 0l4.169 -2.408 6.214 -3.588 1.562 -0.902c0.362 -0.209 0.035 -0.771 -0.328 -0.561Z"/><path class="e" d="M33.029 35.958v9.273c0 0.418 0.65 0.419 0.65 0v-9.273c0 -0.418 -0.65 -0.419 -0.65 0"/><path class="e" d="M53.424 33.719v9.273c0 0.418 0.65 0.419 0.65 0V33.719c0 -0.418 -0.65 -0.419 -0.65 0"/><path class="e" d="M41.522 40.755v9.273c0 0.418 0.65 0.419 0.65 0V40.755c0 -0.418 -0.65 -0.419 -0.65 0"/><path class="b" d="M53.803 33.854 41.852 40.755a0.255 0.255 0 0 1 -0.257 0l-8.112 -4.688a0.259 0.259 0 0 1 0 -0.449c2.09 -1.208 10.33 -5.966 11.951 -6.902a0.254 0.254 0 0 1 0.256 0l8.114 4.688a0.26 0.26 0 0 1 -0.001 0.449"/><path class="e" d="m53.639 33.572 -3.483 2.012 -4.833 2.791 -3.418 1.974c-0.065 0.038 -0.13 0.077 -0.196 0.114 -0.027 0.015 0.042 0.007 0.033 0.001a0.488 0.488 0 0 1 -0.047 -0.027c-0.04 -0.028 -0.086 -0.05 -0.128 -0.074l-0.699 -0.404 -2.153 -1.244 -4.601 -2.659 -0.364 -0.211a0.325 0.325 0 0 0 -0.072 -0.042c-0.056 -0.012 0.002 -0.013 0.002 0.039s-0.056 0.049 -0.004 0.041a0.325 0.325 0 0 0 0.075 -0.044l0.691 -0.399 1.973 -1.139 4.954 -2.861 3.872 -2.236 0.269 -0.156c0.056 -0.033 0.086 -0.025 0.029 -0.044a0.715 0.715 0 0 1 0.113 0.065l0.649 0.375 2.089 1.207 4.649 2.686 0.367 0.211c0.055 0.033 0.11 0.065 0.166 0.096 0.135 0.075 -0.019 -0.009 0.069 -0.072 -0.339 0.239 -0.015 0.803 0.328 0.561a0.597 0.597 0 0 0 0.202 -0.814 1.121 1.121 0 0 0 -0.439 -0.332l-0.88 -0.509 -2.417 -1.397 -4.352 -2.515c-0.088 -0.051 -0.175 -0.105 -0.267 -0.148 -0.24 -0.112 -0.453 -0.037 -0.666 0.086l-0.644 0.372q-0.973 0.561 -1.945 1.123l-5.115 2.953 -4.024 2.324c-0.217 0.125 -0.393 0.293 -0.393 0.564 0 0.276 0.183 0.443 0.403 0.57l0.829 0.479 2.374 1.372 4.49 2.595c0.085 0.049 0.17 0.101 0.257 0.148a0.653 0.653 0 0 0 0.673 0.008c0.163 -0.088 0.322 -0.186 0.482 -0.279l1.698 -0.98 4.86 -2.807L53.365 34.483l0.603 -0.348c0.361 -0.209 0.034 -0.771 -0.329 -0.562"/><path class="a" d="m48.607 34.637 -5.121 2.958 -3.544 -2.047c0.444 -0.256 4.566 -2.637 5.12 -2.958z"/><path class="e" d="M48.443 34.356q-2.201 1.271 -4.402 2.542l-0.719 0.415h0.328q-1.538 -0.888 -3.076 -1.778l-0.468 -0.271v0.561q2.152 -1.244 4.305 -2.486l0.815 -0.471H44.899q1.539 0.889 3.077 1.778l0.468 0.27 -0.149 -0.367a0.335 0.335 0 0 0 0.227 0.4 0.328 0.328 0 0 0 0.4 -0.227 0.338 0.338 0 0 0 -0.149 -0.367q-1.534 -0.886 -3.068 -1.773l-0.476 -0.275a0.328 0.328 0 0 0 -0.328 0l-4.362 2.519 -0.758 0.438a0.328 0.328 0 0 0 0 0.561q1.533 0.885 3.065 1.771l0.48 0.277a0.328 0.328 0 0 0 0.328 0l4.443 -2.566 0.678 -0.391c0.361 -0.208 0.034 -0.77 -0.329 -0.56"/><path class="e" d="M45.82 45.437q0 1.784 0.003 3.567c0 0.418 0.65 0.419 0.65 0q0 -1.784 -0.003 -3.567c0 -0.418 -0.65 -0.419 -0.65 0"/><path class="g" d="M51.721 32.592a3.868 3.868 0 0 0 -1.536 0.061c-0.75 0.173 -1.45 0.515 -2.141 0.854a3.673 3.673 0 0 0 -1.005 0.836c-0.592 0.652 -1.081 1.141 -1.567 1.918a0.38 0.38 0 0 1 -0.127 0.151 0.232 0.232 0 0 1 -0.181 0.021c-0.299 -0.108 -0.783 -0.245 -1.18 -0.346 -0.289 0.401 -0.606 1.417 -0.725 2.367a0.182 0.182 0 0 0 0.118 0.211c1.073 0.231 1.858 0.481 2.95 0.455a1.3 1.3 0 0 0 0.545 -0.13 0.975 0.975 0 0 0 0.096 -0.056c-0.12 0.341 -0.163 0.442 -0.281 0.78 -0.152 0.434 -0.299 0.943 -0.065 1.336a1.256 1.256 0 0 0 0.496 0.429c0.738 0.409 1.593 0.496 2.426 0.445a9.1 9.1 0 0 0 1.185 -0.221s2.011 -0.885 2.954 -1.788a22.588 22.588 0 0 0 0.036 -2.956c-0.019 -0.802 -0.296 -2.336 -0.454 -3.039a3.575 3.575 0 0 0 -0.311 -0.667 1.105 1.105 0 0 0 -0.491 -0.418 2.73 2.73 0 0 0 -0.744 -0.243"/><path class="a" d="M42.353 35.968a1.479 1.479 0 0 0 -0.694 0.261c-0.38 0.25 -0.431 0.746 -0.333 1.314a0.952 0.952 0 0 0 0.702 0.784 3.152 3.152 0 0 0 0.903 0.054l0.343 -0.02a7.475 7.475 0 0 1 0.522 -1.932l-0.01 -0.054a0.946 0.946 0 0 0 -0.657 -0.651c-0.33 -0.076 -0.513 0.213 -0.753 0.242Z"/><path class="e" d="M48.154 37.281a13.162 13.162 0 0 1 -1.208 1.258c-0.269 0.25 -0.57 0.266 -0.922 0.257a6.581 6.581 0 0 1 -1.025 -0.107c-0.341 -0.062 -0.681 -0.142 -1.019 -0.22q-0.144 -0.033 -0.289 -0.066l-0.074 -0.016q-0.14 -0.061 -0.031 0.069c-0.007 -0.001 0.087 -0.511 0.096 -0.557 0.115 -0.552 0.256 -1.174 0.584 -1.646l-0.367 0.149c0.285 0.073 0.569 0.15 0.85 0.237 0.265 0.081 0.519 0.202 0.781 0.04 0.229 -0.141 0.366 -0.482 0.52 -0.694 0.156 -0.216 0.325 -0.42 0.501 -0.621a14.138 14.138 0 0 1 1.1 -1.181c0.426 -0.385 0.981 -0.615 1.503 -0.84a5.281 5.281 0 0 1 1.747 -0.469c0.535 -0.032 1.161 0.036 1.606 0.363a1.349 1.349 0 0 1 0.353 0.533 2.161 2.161 0 0 1 0.154 0.526c0.094 0.465 0.175 0.932 0.245 1.401s0.117 0.933 0.143 1.404c0.026 0.461 0.077 0.923 0.08 1.386 0.003 0.418 0.653 0.419 0.65 0 -0.003 -0.403 -0.042 -0.806 -0.069 -1.208 -0.026 -0.392 -0.049 -0.782 -0.098 -1.173q-0.094 -0.742 -0.228 -1.478a4.583 4.583 0 0 0 -0.291 -1.136 2.6 2.6 0 0 0 -0.326 -0.566 1.739 1.739 0 0 0 -0.693 -0.461 3.503 3.503 0 0 0 -1.698 -0.226 6.013 6.013 0 0 0 -1.688 0.453 7.053 7.053 0 0 0 -1.591 0.821c-0.464 0.353 -0.843 0.817 -1.231 1.249a12.025 12.025 0 0 0 -0.591 0.709q-0.145 0.189 -0.279 0.386 -0.06 0.089 -0.118 0.18 -0.034 0.052 -0.066 0.106 0.084 -0.035 -0.026 -0.01h0.173a5.2 5.2 0 0 1 -0.581 -0.176c-0.219 -0.064 -0.439 -0.124 -0.66 -0.18a0.336 0.336 0 0 0 -0.367 0.149c-0.3 0.43 -0.454 0.984 -0.578 1.487a6.663 6.663 0 0 0 -0.187 1.009 0.544 0.544 0 0 0 0.129 0.424 0.868 0.868 0 0 0 0.485 0.194 17.387 17.387 0 0 0 1.899 0.37c0.657 0.072 1.351 0.109 1.882 -0.346a10.79 10.79 0 0 0 1.278 -1.321c0.264 -0.32 -0.193 -0.783 -0.46 -0.46Z"/><path class="e" d="M46.654 38.856c-0.202 0.575 -0.533 1.21 -0.471 1.834 0.074 0.739 0.719 1.105 1.358 1.33 1.064 0.374 2.204 0.266 3.276 -0.003 0.405 -0.102 0.234 -0.729 -0.173 -0.627 -0.878 0.221 -1.778 0.324 -2.667 0.084 -0.449 -0.121 -1.154 -0.348 -1.151 -0.913 0.003 -0.52 0.283 -1.049 0.454 -1.533 0.139 -0.395 -0.489 -0.565 -0.627 -0.173Z"/><path class="e" d="M44.1 36.287c-0.106 -0.479 -0.632 -0.938 -1.136 -0.899 -0.24 0.019 -0.404 0.156 -0.613 0.252 0.065 -0.03 -0.058 0.014 -0.019 0.005 -0.069 0.015 -0.142 0.019 -0.211 0.033a1.722 1.722 0 0 0 -0.371 0.126 1.381 1.381 0 0 0 -0.566 0.443 1.365 1.365 0 0 0 -0.218 0.663c-0.049 0.479 0.047 1.037 0.393 1.392 0.406 0.416 1.028 0.432 1.572 0.402a0.332 0.332 0 0 0 0.325 -0.325 0.328 0.328 0 0 0 -0.325 -0.325 3.802 3.802 0 0 1 -0.651 -0.01 0.855 0.855 0 0 1 -0.367 -0.122 0.674 0.674 0 0 1 -0.222 -0.274 1.479 1.479 0 0 1 -0.082 -0.506 1.788 1.788 0 0 1 0.009 -0.244 1.788 1.788 0 0 1 0.049 -0.188c-0.012 0.03 0.016 -0.031 0.019 -0.037q0.012 -0.022 0.024 -0.043c0.012 -0.021 0.018 -0.028 0.027 -0.041 0.032 -0.043 -0.026 0.028 0.011 -0.011a0.585 0.585 0 0 1 0.17 -0.128 1.203 1.203 0 0 1 0.459 -0.16 1.333 1.333 0 0 0 0.479 -0.189 0.975 0.975 0 0 1 0.1 -0.054c-0.056 0.024 0.086 -0.019 0.026 -0.011a0.284 0.284 0 0 1 0.199 0.055 0.593 0.593 0 0 1 0.293 0.369 0.325 0.325 0 1 0 0.627 -0.173Z"/><path class="e" d="M47.984 35.56q0.025 0.054 0.049 0.108l-0.033 -0.078a3.738 3.738 0 0 1 0.157 0.463 0.336 0.336 0 0 0 0.149 0.194 0.325 0.325 0 0 0 0.445 -0.117 0.34 0.34 0 0 0 0.033 -0.25 4.16 4.16 0 0 0 -0.237 -0.649 0.325 0.325 0 0 0 -0.194 -0.15 0.333 0.333 0 0 0 -0.25 0.033 0.328 0.328 0 0 0 -0.149 0.194l-0.012 0.086a0.325 0.325 0 0 0 0.044 0.164Z"/><path class="a" d="M50.955 33.124c0.774 -0.649 1.047 -1.807 1.137 -2.438 0.193 -1.354 -0.769 -2.547 -2.014 -2.877a3.013 3.013 0 0 0 -2.788 0.667 3.115 3.115 0 0 0 -1.022 2.266 2.454 2.454 0 0 0 0.373 1.365 1.744 1.744 0 0 0 1.157 0.779"/><path class="e" d="M51.185 33.354c0.728 -0.627 1.077 -1.618 1.215 -2.545a2.907 2.907 0 0 0 -1.067 -2.716 3.292 3.292 0 0 0 -3.118 -0.53 3.413 3.413 0 0 0 -2.194 2.488c-0.271 1.272 0.254 2.891 1.69 3.146a0.335 0.335 0 0 0 0.4 -0.227 0.328 0.328 0 0 0 -0.227 -0.4c-1.012 -0.18 -1.402 -1.27 -1.266 -2.19a2.779 2.779 0 0 1 1.64 -2.144 2.67 2.67 0 0 1 2.522 0.249 2.28 2.28 0 0 1 1 2.08c-0.083 0.838 -0.405 1.767 -1.056 2.327 -0.318 0.273 0.144 0.731 0.46 0.46Z"/><path class="h" d="M52.274 30.158c-0.047 -0.426 -0.346 -1.947 -2.196 -2.349a3.032 3.032 0 0 0 -3.746 2.342 1.586 1.586 0 0 1 1.365 0.883c0.299 0.621 0.161 1.351 0.067 2.033a0.747 0.747 0 0 0 0.037 0.46 0.731 0.731 0 0 0 0.358 0.248c0.534 0.268 1.686 0.525 3.104 -0.098a2.73 2.73 0 0 0 0.804 -0.544 1.359 1.359 0 0 0 0.287 -0.64c0.095 -0.423 0.033 -1.314 -0.079 -2.334"/><path class="e" d="M52.599 30.158a3.039 3.039 0 0 0 -1.173 -2.104 3.586 3.586 0 0 0 -3.988 -0.101 3.44 3.44 0 0 0 -1.419 2.112 0.33 0.33 0 0 0 0.313 0.411 1.269 1.269 0 0 1 0.945 0.491c0.262 0.342 0.294 0.784 0.269 1.199 -0.013 0.227 -0.045 0.453 -0.077 0.678a1.479 1.479 0 0 0 0.007 0.747c0.129 0.339 0.515 0.483 0.832 0.599a3.916 3.916 0 0 0 2.163 0.089c0.78 -0.173 1.771 -0.559 2.092 -1.36a2.876 2.876 0 0 0 0.16 -1.125c-0.008 -0.547 -0.065 -1.092 -0.124 -1.636a0.335 0.335 0 0 0 -0.325 -0.325 0.327 0.327 0 0 0 -0.325 0.325c0.05 0.463 0.098 0.926 0.117 1.391a3.445 3.445 0 0 1 -0.042 0.919 1.137 1.137 0 0 1 -0.6 0.754 3.738 3.738 0 0 1 -1.158 0.437 3.201 3.201 0 0 1 -1.853 -0.123 1.137 1.137 0 0 1 -0.304 -0.149c-0.099 -0.108 -0.012 -0.377 0.007 -0.51a4.859 4.859 0 0 0 0.058 -1.347 1.94 1.94 0 0 0 -1.842 -1.705l0.313 0.411a2.724 2.724 0 0 1 2.719 -2.185c0.982 0.013 1.924 0.463 2.363 1.363a2.502 2.502 0 0 1 0.164 0.455q0.025 0.096 0.043 0.193c0.006 0.03 0.01 0.061 0.015 0.091 0.013 0.074 -0.009 -0.075 0 0.005a0.335 0.335 0 0 0 0.325 0.325 0.327 0.327 0 0 0 0.325 -0.324"/><path class="e" d="M45.822 43.815v1.614a0.327 0.327 0 0 0 0.161 0.281q1.849 1.067 3.701 2.129c0.276 0.159 0.545 0.348 0.869 0.385 0.433 0.051 0.757 -0.148 1.114 -0.355l2.15 -1.242 1.233 -0.712a2.145 2.145 0 0 0 0.58 -0.405 1.193 1.193 0 0 0 0.286 -0.757c0.015 -0.418 -0.635 -0.418 -0.65 0 -0.013 0.382 -0.393 0.514 -0.679 0.679l-1.045 0.604 -2.082 1.203c-0.247 0.143 -0.519 0.371 -0.818 0.345 -0.234 -0.021 -0.466 -0.211 -0.666 -0.325q-0.915 -0.527 -1.83 -1.053t-1.836 -1.056l0.161 0.28v-1.614c0 -0.418 -0.65 -0.419 -0.65 0Z"/><path class="b" d="M55.591 42.77c0 -1.996 -0.002 -4.476 -0.002 -5.278a0.275 0.275 0 0 0 -0.408 -0.242c-0.993 0.551 -2.935 1.677 -3.996 2.311a0.834 0.834 0 0 0 -0.408 0.715v5.285A382.525 382.525 0 0 1 55.591 42.77"/><path class="e" d="M51.101 47.867v-7.204c0 -0.211 -0.041 -0.474 0.08 -0.659a1.137 1.137 0 0 1 0.411 -0.308q0.252 -0.149 0.504 -0.298 1.143 -0.672 2.294 -1.329l0.515 -0.293c0.046 -0.026 0.44 -0.202 0.441 -0.247 0 0.037 -0.081 -0.014 -0.074 -0.016 -0.039 0.011 0.019 -0.044 -0.007 -0.002 -0.016 0.025 0 0.112 0 0.142v2.234l0.002 4.865c0 0.418 0.65 0.419 0.65 0q0 -2.277 -0.002 -4.554v-2.085a4.713 4.713 0 0 0 -0.011 -0.718 0.6 0.6 0 0 0 -0.448 -0.49c-0.237 -0.055 -0.429 0.056 -0.628 0.168 -0.768 0.43 -1.531 0.871 -2.291 1.314q-0.572 0.333 -1.141 0.67c-0.385 0.227 -0.767 0.442 -0.899 0.903a2.795 2.795 0 0 0 -0.044 0.761v7.145c0 0.418 0.65 0.419 0.65 0Z"/><path class="e" d="M50.94 45.847q2.393 -1.417 4.813 -2.79c0.364 -0.206 0.037 -0.768 -0.328 -0.561q-2.42 1.371 -4.813 2.79c-0.36 0.213 -0.033 0.775 0.328 0.561"/><path class="e" d="M42.84 52.269q0 2.021 0.001 4.041c0 0.418 0.65 0.419 0.65 0q0 -2.02 -0.001 -4.041c0 -0.418 -0.65 -0.419 -0.65 0"/><path class="e" d="M38.005 55.172V59.101c0 0.418 0.65 0.419 0.65 0v-3.929c0 -0.418 -0.65 -0.419 -0.65 0"/><path class="f" d="m38.993 49.569 -5.286 -1.495c-0.989 0.209 -1.849 0.798 -2.026 1.868 -0.029 0.577 0.133 2.436 0.222 3.161a1.414 1.414 0 0 0 0.05 0.351 1.024 1.024 0 0 0 0.214 0.305c0.451 0.493 1.065 0.524 1.496 0.595l0.41 0.004c0 -0.597 -0.001 -1.187 -0.002 -1.534a0.512 0.512 0 0 1 -0.244 -0.437v-1.511c0.881 0.488 1.689 0.878 2.726 1.103a2.795 2.795 0 0 0 0.859 0.022c0.334 -0.053 0.701 -0.188 0.885 -0.415l2.581 -1.483 -0.074 -0.021Z"/><path class="a" d="M30.731 53.723a0.796 0.796 0 0 1 0.328 -0.163 2.779 2.779 0 0 1 0.944 -0.007 1.397 1.397 0 0 0 0.164 0.207c0.471 0.515 1.121 0.525 1.554 0.605 0 0.521 0.001 1.049 0.001 1.476a1.227 1.227 0 0 1 -0.699 0.185 2.746 2.746 0 0 1 -0.929 -0.257c-0.531 -0.22 -1.074 -0.465 -1.453 -0.897a1.3 1.3 0 0 1 -0.098 -0.124 0.647 0.647 0 0 1 -0.11 -0.429 0.861 0.861 0 0 1 0.095 -0.361 0.975 0.975 0 0 1 0.202 -0.236"/><path class="e" d="M33.621 47.76c-1.203 0.264 -2.29 1.149 -2.266 2.467 0.01 0.569 0.058 1.136 0.107 1.702q0.035 0.408 0.077 0.816c0.031 0.293 0.018 0.636 0.146 0.901 0.358 0.731 1.17 0.906 1.892 1.022a0.335 0.335 0 0 0 0.4 -0.227 0.327 0.327 0 0 0 -0.227 -0.4c-0.524 -0.085 -1.098 -0.14 -1.437 -0.607 -0.122 -0.169 -0.101 -0.462 -0.123 -0.668q-0.039 -0.365 -0.07 -0.731c-0.046 -0.52 -0.087 -1.04 -0.108 -1.561a3.575 3.575 0 0 1 -0.007 -0.506 1.615 1.615 0 0 1 0.309 -0.734c0.349 -0.478 0.917 -0.725 1.479 -0.848 0.409 -0.09 0.236 -0.716 -0.173 -0.627Z"/><path class="e" d="M33.379 50.997a12.106 12.106 0 0 0 2.603 1.174c0.8 0.227 1.928 0.346 2.546 -0.356 0.276 -0.313 -0.182 -0.774 -0.46 -0.46 -0.232 0.263 -0.626 0.338 -0.962 0.343a3.656 3.656 0 0 1 -1.151 -0.214 11.863 11.863 0 0 1 -2.249 -1.048c-0.365 -0.206 -0.693 0.355 -0.328 0.561"/><path class="e" d="M33.781 55.306c-0.19 0.362 -0.615 0.448 -0.989 0.362a5.038 5.038 0 0 1 -1.316 -0.549c-0.306 -0.175 -0.786 -0.461 -0.707 -0.873 0.091 -0.466 0.687 -0.419 1.042 -0.391a0.328 0.328 0 0 0 0.325 -0.325 0.332 0.332 0 0 0 -0.325 -0.325c-0.638 -0.051 -1.404 0.058 -1.639 0.76a1.11 1.11 0 0 0 0.091 0.947 2.373 2.373 0 0 0 0.683 0.644 4.989 4.989 0 0 0 0.82 0.424 4.436 4.436 0 0 0 0.98 0.34c0.613 0.104 1.294 -0.108 1.597 -0.686 0.194 -0.37 -0.367 -0.699 -0.561 -0.328Z"/><path class="a" d="M29.427 48.06a0.255 0.255 0 0 1 -0.257 0c-0.943 -0.545 -6.568 -3.796 -8.112 -4.688a0.255 0.255 0 0 1 -0.103 -0.112l-0.026 0.003v2.766l0.182 0.105c0.189 0.109 8.027 4.639 8.267 4.777 0.54 -0.312 11.6 -6.698 11.946 -6.898v-2.824Z"/><path class="e" d="m41.161 43.733 -4.031 2.328 -6.253 3.611 -1.662 0.959h0.327q-1.428 -0.825 -2.856 -1.65L22.344 46.471l-1.068 -0.617c-0.363 -0.21 -0.691 0.352 -0.328 0.561q1.41 0.814 2.819 1.629l4.354 2.516 1.094 0.632a0.328 0.328 0 0 0 0.328 0l4.169 -2.408 6.214 -3.588 1.562 -0.902c0.362 -0.209 0.035 -0.771 -0.328 -0.561Z"/><path class="e" d="M20.604 43.263V52.536c0 0.418 0.65 0.419 0.65 0v-9.273c0 -0.418 -0.65 -0.419 -0.65 0"/><path class="e" d="M41 41.024v9.273c0 0.418 0.65 0.419 0.65 0v-9.273c0 -0.418 -0.65 -0.419 -0.65 0"/><path class="e" d="M29.097 48.06v9.273c0 0.418 0.65 0.419 0.65 0v-9.273c0 -0.418 -0.65 -0.419 -0.65 0"/><path class="b" d="m41.378 41.159 -11.951 6.901a0.255 0.255 0 0 1 -0.257 0c-0.943 -0.545 -6.568 -3.796 -8.112 -4.688a0.259 0.259 0 0 1 0 -0.449c2.09 -1.208 10.33 -5.966 11.951 -6.902a0.254 0.254 0 0 1 0.256 0l8.114 4.688a0.259 0.259 0 0 1 0 0.449"/><path class="e" d="m41.214 40.878 -3.483 2.011 -4.833 2.791 -3.418 1.974c-0.065 0.038 -0.13 0.077 -0.196 0.114 -0.027 0.014 0.042 0.007 0.033 0.001 -0.015 -0.008 -0.033 -0.017 -0.047 -0.027 -0.04 -0.028 -0.086 -0.05 -0.128 -0.074l-0.7 -0.404 -2.153 -1.244 -4.601 -2.659 -0.364 -0.211a0.325 0.325 0 0 0 -0.072 -0.042c-0.056 -0.012 0.002 -0.013 0.002 0.039s-0.056 0.049 -0.004 0.04a0.325 0.325 0 0 0 0.075 -0.044l0.691 -0.399 1.973 -1.139 4.953 -2.861 3.872 -2.236 0.269 -0.156c0.055 -0.033 0.086 -0.025 0.029 -0.044a0.699 0.699 0 0 1 0.112 0.065l0.65 0.375 2.089 1.207 4.649 2.686 0.367 0.211c0.055 0.033 0.11 0.065 0.166 0.096 0.134 0.075 -0.019 -0.009 0.069 -0.072 -0.339 0.239 -0.015 0.803 0.328 0.561a0.597 0.597 0 0 0 0.202 -0.814 1.116 1.116 0 0 0 -0.438 -0.333l-0.88 -0.509 -2.417 -1.397 -4.352 -2.515c-0.088 -0.051 -0.175 -0.105 -0.267 -0.148 -0.24 -0.112 -0.453 -0.037 -0.666 0.086l-0.645 0.372 -1.945 1.123 -5.115 2.954 -4.024 2.324c-0.217 0.125 -0.393 0.293 -0.393 0.564 0 0.276 0.183 0.443 0.403 0.57l0.829 0.479 2.374 1.372 4.49 2.595c0.085 0.049 0.17 0.101 0.257 0.148a0.653 0.653 0 0 0 0.673 0.008c0.163 -0.088 0.322 -0.186 0.482 -0.279l1.698 -0.98 4.86 -2.807 4.271 -2.466 0.603 -0.348c0.362 -0.208 0.035 -0.77 -0.329 -0.56"/><path class="a" d="m35.914 41.967 -5.121 2.958 -3.544 -2.047c0.444 -0.256 4.566 -2.637 5.12 -2.958z"/><path class="e" d="M35.75 41.687q-2.201 1.271 -4.402 2.542l-0.719 0.415h0.328q-1.538 -0.888 -3.076 -1.778l-0.468 -0.271v0.561q2.152 -1.244 4.305 -2.486l0.815 -0.471h-0.328q1.538 0.888 3.076 1.778l0.468 0.27 -0.149 -0.367a0.335 0.335 0 0 0 0.227 0.4 0.328 0.328 0 0 0 0.4 -0.227 0.338 0.338 0 0 0 -0.149 -0.367q-1.534 -0.886 -3.068 -1.773l-0.476 -0.275a0.328 0.328 0 0 0 -0.328 0l-4.362 2.519 -0.758 0.438a0.328 0.328 0 0 0 0 0.561q1.533 0.885 3.065 1.771l0.48 0.277a0.328 0.328 0 0 0 0.328 0l4.442 -2.564 0.678 -0.391c0.362 -0.21 0.035 -0.772 -0.328 -0.562"/><path class="e" d="M33.395 52.743q0 1.784 0.003 3.567c0 0.418 0.65 0.419 0.65 0q0 -1.784 -0.003 -3.567c0 -0.418 -0.65 -0.419 -0.65 0"/><path class="a" d="M34.897 39.904a2.178 2.178 0 0 0 0.839 0.273c0.034 -0.688 -0.002 -1.544 -0.354 -2.136a1.581 1.581 0 0 0 -1.493 -0.756 3.039 3.039 0 0 0 -0.037 0.759 2.644 2.644 0 0 0 0.471 1.388 1.982 1.982 0 0 0 0.573 0.472"/><path class="i" d="M35.382 38.041c0.352 0.592 0.388 1.448 0.354 2.136l0.005 0.032v0.513l0.142 -0.039a8.986 8.986 0 0 1 1.877 -0.725 4.111 4.111 0 0 1 1.111 -0.107c0.594 -0.72 0.797 -1.333 0.779 -2.367 -0.024 -1.367 -0.83 -2.494 -2.257 -2.694a3.03 3.03 0 0 0 -3.504 2.494 1.581 1.581 0 0 1 1.493 0.757"/><path class="g" d="M39.297 39.898a3.868 3.868 0 0 0 -1.536 0.061c-0.75 0.173 -1.45 0.514 -2.141 0.854a3.673 3.673 0 0 0 -1.005 0.836c-0.592 0.652 -1.081 1.141 -1.567 1.918a0.38 0.38 0 0 1 -0.127 0.152 0.232 0.232 0 0 1 -0.18 0.021c-0.299 -0.108 -0.783 -0.245 -1.181 -0.346 -0.289 0.401 -0.605 1.417 -0.725 2.367a0.182 0.182 0 0 0 0.118 0.211c1.073 0.232 1.858 0.481 2.95 0.455a1.3 1.3 0 0 0 0.545 -0.13 0.975 0.975 0 0 0 0.096 -0.055c-0.12 0.341 -0.163 0.441 -0.281 0.78 -0.152 0.434 -0.299 0.943 -0.065 1.335a1.256 1.256 0 0 0 0.496 0.429c0.738 0.409 1.593 0.496 2.426 0.445a9.1 9.1 0 0 0 1.185 -0.221s2.011 -0.885 2.954 -1.789a22.588 22.588 0 0 0 0.036 -2.956c-0.019 -0.803 -0.296 -2.336 -0.454 -3.039a3.575 3.575 0 0 0 -0.311 -0.667 1.105 1.105 0 0 0 -0.491 -0.418 2.73 2.73 0 0 0 -0.744 -0.243"/><path class="e" d="M35.737 39.852a1.763 1.763 0 0 1 -1.206 -0.686 2.421 2.421 0 0 1 -0.362 -1.319 2.75 2.75 0 0 1 1.316 -2.385 2.834 2.834 0 0 1 2.545 -0.156 2.29 2.29 0 0 1 1.254 1.718 3.656 3.656 0 0 1 -0.03 1.395 2.86 2.86 0 0 1 -0.613 1.204c-0.263 0.321 0.195 0.784 0.46 0.46a3.705 3.705 0 0 0 0.735 -1.31 4.258 4.258 0 0 0 0.125 -1.566c-0.095 -0.97 -0.574 -1.886 -1.44 -2.378 -0.955 -0.542 -2.198 -0.512 -3.17 -0.033a3.393 3.393 0 0 0 -1.828 2.855 3.092 3.092 0 0 0 0.465 1.869 2.46 2.46 0 0 0 1.749 0.982 0.327 0.327 0 0 0 0.325 -0.325 0.333 0.333 0 0 0 -0.325 -0.325"/><path class="e" d="M33.946 37.604a1.287 1.287 0 0 1 1.255 0.793c0.237 0.55 0.238 1.192 0.21 1.779a0.325 0.325 0 0 0 0.65 0c0.035 -0.734 0 -1.518 -0.336 -2.186a1.918 1.918 0 0 0 -1.779 -1.036 0.332 0.332 0 0 0 -0.325 0.325 0.328 0.328 0 0 0 0.325 0.325"/><path class="a" d="M29.882 43.279a1.472 1.472 0 0 0 -0.649 0.254c-0.38 0.25 -0.523 0.757 -0.425 1.325 0.073 0.423 0.455 0.684 0.794 0.773a3.152 3.152 0 0 0 0.903 0.054l0.343 -0.02a7.475 7.475 0 0 1 0.522 -1.932l-0.01 -0.054a0.946 0.946 0 0 0 -0.657 -0.651c-0.33 -0.076 -0.513 0.213 -0.753 0.242q-0.036 0.005 -0.07 0.01"/><path class="e" d="M35.729 44.586a13.162 13.162 0 0 1 -1.208 1.258c-0.269 0.25 -0.57 0.266 -0.922 0.258a6.663 6.663 0 0 1 -1.025 -0.107c-0.341 -0.062 -0.681 -0.142 -1.019 -0.22q-0.145 -0.034 -0.289 -0.066l-0.074 -0.016q-0.14 -0.061 -0.031 0.069c-0.007 -0.001 0.087 -0.512 0.096 -0.557 0.115 -0.552 0.256 -1.175 0.584 -1.646l-0.367 0.149c0.285 0.073 0.569 0.15 0.85 0.237 0.265 0.081 0.519 0.202 0.781 0.04 0.229 -0.141 0.366 -0.482 0.52 -0.694 0.156 -0.215 0.325 -0.42 0.501 -0.62a14.138 14.138 0 0 1 1.1 -1.181c0.426 -0.386 0.981 -0.616 1.503 -0.84a5.281 5.281 0 0 1 1.747 -0.469c0.535 -0.033 1.161 0.036 1.606 0.363a1.349 1.349 0 0 1 0.353 0.533 2.145 2.145 0 0 1 0.154 0.526c0.094 0.464 0.175 0.932 0.245 1.401s0.117 0.933 0.143 1.404c0.026 0.461 0.077 0.923 0.08 1.385 0.003 0.418 0.653 0.419 0.65 0 -0.003 -0.403 -0.042 -0.806 -0.069 -1.208 -0.026 -0.392 -0.049 -0.783 -0.098 -1.173q-0.094 -0.742 -0.229 -1.478a4.583 4.583 0 0 0 -0.292 -1.135 2.6 2.6 0 0 0 -0.326 -0.566 1.739 1.739 0 0 0 -0.693 -0.461 3.51 3.51 0 0 0 -1.698 -0.226 6.013 6.013 0 0 0 -1.688 0.453 7.053 7.053 0 0 0 -1.591 0.82c-0.464 0.353 -0.843 0.817 -1.231 1.249a12.025 12.025 0 0 0 -0.591 0.709q-0.145 0.189 -0.279 0.386 -0.06 0.089 -0.118 0.18 -0.034 0.052 -0.066 0.106 0.084 -0.035 -0.026 -0.01h0.173a5.2 5.2 0 0 1 -0.581 -0.176c-0.219 -0.065 -0.439 -0.124 -0.66 -0.18a0.336 0.336 0 0 0 -0.367 0.149c-0.299 0.43 -0.454 0.984 -0.578 1.487a6.663 6.663 0 0 0 -0.187 1.009 0.544 0.544 0 0 0 0.129 0.424 0.866 0.866 0 0 0 0.485 0.194 17.387 17.387 0 0 0 1.899 0.37c0.657 0.073 1.351 0.109 1.882 -0.346a10.806 10.806 0 0 0 1.279 -1.322c0.264 -0.32 -0.193 -0.783 -0.46 -0.46Z"/><path class="e" d="M34.229 46.161c-0.202 0.575 -0.533 1.21 -0.471 1.834 0.074 0.739 0.719 1.105 1.358 1.33 1.064 0.374 2.204 0.267 3.276 -0.003 0.406 -0.102 0.234 -0.729 -0.173 -0.627 -0.878 0.221 -1.778 0.324 -2.667 0.085 -0.449 -0.121 -1.154 -0.348 -1.151 -0.913 0.003 -0.52 0.283 -1.049 0.454 -1.533 0.139 -0.395 -0.489 -0.565 -0.627 -0.173Z"/><path class="e" d="M31.675 43.593c-0.107 -0.483 -0.644 -0.95 -1.152 -0.897a0.975 0.975 0 0 0 -0.364 0.117c-0.038 0.02 -0.074 0.043 -0.111 0.065l-0.054 0.033c-0.01 0.006 -0.087 0.043 -0.056 0.031 0.036 -0.014 -0.021 0.006 -0.03 0.008 -0.061 0.013 0.102 -0.013 -0.044 0.008 -0.069 0.01 -0.138 0.02 -0.207 0.035a1.788 1.788 0 0 0 -0.367 0.134 1.419 1.419 0 0 0 -0.813 1.106c-0.072 0.504 0.016 1.051 0.426 1.392 0.454 0.378 1.035 0.418 1.603 0.387a0.332 0.332 0 0 0 0.325 -0.325 0.328 0.328 0 0 0 -0.325 -0.325 3.802 3.802 0 0 1 -0.651 -0.01 1.788 1.788 0 0 1 -0.197 -0.041 0.585 0.585 0 0 1 -0.171 -0.069 0.699 0.699 0 0 1 -0.304 -0.282 1.008 1.008 0 0 1 -0.079 -0.46 0.975 0.975 0 0 1 0.019 -0.208 1.414 1.414 0 0 1 0.066 -0.217 0.617 0.617 0 0 1 0.266 -0.295 1.235 1.235 0 0 1 0.496 -0.183 1.284 1.284 0 0 0 0.466 -0.181 0.975 0.975 0 0 1 0.114 -0.062c-0.055 0.023 0.087 -0.018 0.026 -0.011a0.255 0.255 0 0 1 0.181 0.045 0.601 0.601 0 0 1 0.31 0.379 0.325 0.325 0 1 0 0.627 -0.173Z"/><path class="e" d="M35.559 42.865q0.025 0.054 0.048 0.108l-0.033 -0.078a3.738 3.738 0 0 1 0.156 0.463 0.336 0.336 0 0 0 0.15 0.194 0.325 0.325 0 0 0 0.445 -0.117 0.34 0.34 0 0 0 0.033 -0.25 4.16 4.16 0 0 0 -0.237 -0.649 0.325 0.325 0 0 0 -0.194 -0.149 0.332 0.332 0 0 0 -0.25 0.033 0.328 0.328 0 0 0 -0.149 0.194l-0.012 0.086a0.325 0.325 0 0 0 0.044 0.164Z"/><path class="e" d="M33.397 51.121v1.614a0.327 0.327 0 0 0 0.161 0.281q1.849 1.067 3.701 2.129c0.276 0.16 0.545 0.348 0.869 0.386 0.433 0.05 0.757 -0.148 1.114 -0.355l2.15 -1.242 1.233 -0.712a2.145 2.145 0 0 0 0.58 -0.405 1.193 1.193 0 0 0 0.286 -0.757c0.015 -0.418 -0.635 -0.418 -0.65 0 -0.013 0.382 -0.393 0.514 -0.679 0.679l-1.045 0.604 -2.082 1.203c-0.247 0.143 -0.519 0.371 -0.818 0.345 -0.234 -0.021 -0.466 -0.211 -0.666 -0.325q-0.915 -0.527 -1.831 -1.053t-1.835 -1.056l0.161 0.281v-1.614c0 -0.418 -0.65 -0.419 -0.65 0Z"/><path class="b" d="M43.166 50.075c0 -1.996 -0.002 -4.476 -0.002 -5.278a0.275 0.275 0 0 0 -0.408 -0.242c-0.993 0.551 -2.935 1.677 -3.996 2.311a0.834 0.834 0 0 0 -0.408 0.715v5.285a396.175 396.175 0 0 1 4.815 -2.791"/><path class="e" d="M38.676 55.172v-7.204c0 -0.211 -0.041 -0.474 0.08 -0.659a1.137 1.137 0 0 1 0.411 -0.308q0.252 -0.149 0.504 -0.298 1.143 -0.672 2.294 -1.329l0.515 -0.293c0.046 -0.026 0.44 -0.202 0.441 -0.247 0 0.037 -0.081 -0.014 -0.074 -0.016 -0.039 0.011 0.019 -0.044 -0.007 -0.002 -0.016 0.025 0 0.112 0 0.142v2.234l0.002 4.865c0 0.418 0.65 0.419 0.65 0q0 -2.277 -0.002 -4.554l-0.001 -2.085a4.713 4.713 0 0 0 -0.01 -0.718 0.6 0.6 0 0 0 -0.449 -0.49c-0.237 -0.055 -0.429 0.056 -0.628 0.168 -0.768 0.43 -1.531 0.871 -2.291 1.314q-0.572 0.333 -1.141 0.669c-0.385 0.227 -0.767 0.442 -0.899 0.903a2.795 2.795 0 0 0 -0.044 0.761v7.145c0 0.418 0.65 0.419 0.65 0Z"/><path class="e" d="M38.515 53.152q2.393 -1.417 4.813 -2.79c0.364 -0.206 0.037 -0.768 -0.328 -0.561q-2.42 1.371 -4.813 2.79c-0.36 0.213 -0.033 0.775 0.328 0.561"/><path class="a" d="M39.169 28.988a1.089 1.089 0 0 0 -0.325 -0.692 2.275 2.275 0 0 1 -0.411 0.085c-0.794 0.076 -1.547 0.121 -2.248 -0.257l-0.567 -0.415c-0.668 0.1 -1.405 0.137 -1.929 -0.045a1.463 1.463 0 0 1 -0.168 -0.071c-0.271 0.242 -0.859 0.763 -0.993 1.009a0.985 0.985 0 0 0 -0.068 0.88 0.956 0.956 0 0 0 0.667 0.482 2.194 2.194 0 0 0 0.846 -0.018 5.688 5.688 0 0 0 1.294 -0.38 1.219 1.219 0 0 0 0.009 0.431 0.905 0.905 0 0 0 0.492 0.578 1.739 1.739 0 0 0 0.958 0.139 5.2 5.2 0 0 0 1.415 -0.366c0.295 -0.109 0.606 -0.235 0.789 -0.492a1.186 1.186 0 0 0 0.238 -0.868"/><path class="e" d="M33.357 27.306c-0.218 0.197 -0.439 0.392 -0.65 0.598a2.064 2.064 0 0 0 -0.579 0.815 1.168 1.168 0 0 0 0.299 1.247 1.674 1.674 0 0 0 1.324 0.34 6.029 6.029 0 0 0 1.541 -0.398 0.335 0.335 0 0 0 0.227 -0.4 0.327 0.327 0 0 0 -0.4 -0.227 5.2 5.2 0 0 1 -1.443 0.383c-0.351 0.031 -0.879 -0.01 -0.957 -0.43a0.731 0.731 0 0 1 0.111 -0.5c0.009 -0.014 0.07 -0.092 0.019 -0.03q0.026 -0.033 0.054 -0.065c0.056 -0.065 0.116 -0.128 0.176 -0.189 0.236 -0.239 0.488 -0.46 0.737 -0.684a0.325 0.325 0 0 0 -0.46 -0.46Z"/><path class="e" d="M35.724 28.399c-0.493 0.335 -0.837 0.847 -0.793 1.463a1.302 1.302 0 0 0 1.062 1.14c0.666 0.14 1.365 -0.031 1.994 -0.252 0.605 -0.213 1.159 -0.443 1.414 -1.079 0.21 -0.525 0.101 -1.409 -0.459 -1.695 -0.372 -0.19 -0.701 0.371 -0.328 0.561 0.147 0.075 0.208 0.301 0.232 0.452a0.908 0.908 0 0 1 -0.195 0.704 1.409 1.409 0 0 1 -0.629 0.356 6.825 6.825 0 0 1 -0.947 0.291c-0.437 0.091 -1.114 0.163 -1.411 -0.263 -0.273 -0.389 0.065 -0.895 0.39 -1.116 0.344 -0.234 0.019 -0.796 -0.328 -0.561Z"/><path class="a" d="M36.628 19.939c-0.35 0.019 -0.705 0.026 -1.055 0.025h-0.142c-0.887 -0.003 -1.744 -0.061 -2.397 -0.114 0.001 0.039 0.002 0.061 0.002 0.061 0.038 1.853 0.225 6.064 0.309 7.577a1.268 1.268 0 0 0 0.347 0.179c0.523 0.182 1.261 0.144 1.929 0.045l0.567 0.415c0.702 0.378 1.455 0.333 2.248 0.257a1.836 1.836 0 0 0 0.711 -0.217c0.025 -2.022 0.003 -6.58 -0.122 -8.564A14.397 14.397 0 0 1 36.628 19.939"/><path class="e" d="M35.512 20.271q0 2.966 0.014 5.932 0.005 0.876 0.015 1.752c0.005 0.418 0.655 0.419 0.65 0 -0.026 -2.132 -0.027 -4.264 -0.029 -6.396v-1.288c0 -0.418 -0.65 -0.419 -0.65 0Z"/><path class="e" d="M32.709 19.91c0.027 1.315 0.083 2.63 0.138 3.944q0.044 1.048 0.093 2.096 0.021 0.437 0.042 0.873a3.689 3.689 0 0 0 0.046 0.75c0.058 0.213 0.357 0.326 0.544 0.395a2.632 2.632 0 0 0 0.625 0.13 6.013 6.013 0 0 0 1.506 -0.074 0.327 0.327 0 0 0 0.227 -0.4 0.333 0.333 0 0 0 -0.4 -0.227c-0.628 0.091 -1.473 0.203 -2.025 -0.19l0.161 0.281c-0.111 -2.017 -0.195 -4.037 -0.264 -6.056a110.5 110.5 0 0 1 -0.044 -1.521c-0.009 -0.418 -0.659 -0.419 -0.65 0Z"/><path class="e" d="M36.021 28.405a3.283 3.283 0 0 0 1.494 0.353 5.005 5.005 0 0 0 1.355 -0.13c0.184 -0.05 0.452 -0.123 0.555 -0.299 0.079 -0.136 0.047 -0.358 0.049 -0.512q0.004 -0.491 0.005 -0.983c0.004 -1.614 -0.008 -3.229 -0.044 -4.843 -0.016 -0.761 -0.037 -1.523 -0.081 -2.283 -0.024 -0.416 -0.674 -0.419 -0.65 0 0.132 2.277 0.126 4.566 0.125 6.847 0 0.536 -0.003 1.074 -0.009 1.611l0.161 -0.281c-0.348 0.218 -0.827 0.208 -1.222 0.221a2.79 2.79 0 0 1 -1.409 -0.261c-0.371 -0.193 -0.7 0.368 -0.328 0.561Z"/><path class="a" d="M36.87 5.469c-1.869 -0.561 -2.925 -0.047 -3.236 0.684a4.192 4.192 0 0 0 -0.372 0.894 4.388 4.388 0 0 0 -0.086 0.589c-0.005 0.052 -0.009 0.102 -0.012 0.146a2.911 2.911 0 0 0 5.135 2.095c0.363 -0.011 0.569 -0.007 0.866 -0.14a1.102 1.102 0 0 0 0.605 -0.649 0.879 0.879 0 0 0 -0.177 -0.864 0.747 0.747 0 0 0 -0.477 -0.249s0.152 -1.383 -1.093 -1.993a7.963 7.963 0 0 0 -1.152 -0.514"/><path class="i" d="M35.647 4.368a3.413 3.413 0 0 0 -0.442 0.145 2.779 2.779 0 0 0 -1.049 0.796 3.453 3.453 0 0 0 1.818 1.331 0.141 0.141 0 0 0 0.13 -0.005 0.143 0.143 0 0 0 0.038 -0.091l0.071 -0.431 1.079 0.969a2.795 2.795 0 0 0 0.837 0.446l1.451 0.484a2.774 2.774 0 0 0 0.028 -1.509 2.868 2.868 0 0 0 -0.998 -1.567 3.123 3.123 0 0 0 -1.812 -0.67 4.046 4.046 0 0 0 -1.151 0.103"/><path class="e" d="M38.383 10.2a2.226 2.226 0 0 0 1.022 -0.219 1.43 1.43 0 0 0 0.669 -0.778 1.222 1.222 0 0 0 -0.1 -1.01 1.139 1.139 0 0 0 -0.771 -0.529 0.325 0.325 0 0 0 -0.173 0.627c0.063 0.013 0.123 0.029 0.184 0.048s-0.052 -0.033 0.004 0.002l0.055 0.033c0.052 0.029 -0.047 -0.047 0.011 0.008 0.02 0.019 0.041 0.037 0.06 0.057s0.037 0.039 0.055 0.059c-0.045 -0.052 0.007 0.014 0.013 0.024 0.014 0.024 0.027 0.049 0.039 0.073 -0.032 -0.065 0.007 0.024 0.011 0.039 0.009 0.032 0.016 0.063 0.023 0.096 -0.012 -0.057 0 -0.002 0.002 0.026s0.002 0.057 0.001 0.085c0 0.019 -0.002 0.038 -0.004 0.056q0.008 -0.052 0.002 -0.016a1.3 1.3 0 0 1 -0.05 0.177c0.025 -0.065 -0.012 0.019 -0.015 0.026a1.056 1.056 0 0 1 -0.076 0.121q0.029 -0.036 0.007 -0.01c-0.023 0.024 -0.044 0.05 -0.067 0.074 -0.02 0.02 -0.042 0.039 -0.063 0.058 -0.054 0.05 0.033 -0.017 -0.024 0.019a1.95 1.95 0 0 1 -0.171 0.1c-0.055 0.028 0.033 -0.009 -0.037 0.015 -0.028 0.01 -0.056 0.02 -0.085 0.029a1.625 1.625 0 0 1 -0.19 0.043c0.058 -0.01 0.005 0 -0.024 0.002s-0.057 0.005 -0.086 0.006c-0.074 0.005 -0.148 0.007 -0.222 0.009a0.325 0.325 0 0 0 0 0.65Z"/><path class="f" d="M31.395 11.919c0.099 0.103 0.199 0.206 0.299 0.305 0.592 -0.737 1.503 -1.275 2.413 -1.82a5.883 5.883 0 0 0 0.879 2.528 0.406 0.406 0 0 0 0.133 0.146c0.124 0.066 0.264 -0.031 0.373 -0.126a7.979 7.979 0 0 0 1.891 -2.389c0.589 -0.071 1.511 0.605 1.904 1.065a4.388 4.388 0 0 1 0.546 0.817 6.792 6.792 0 0 1 0.48 1.363 4.726 4.726 0 0 1 -0.432 3.438 4.599 4.599 0 0 1 -0.58 0.821l-0.039 0.044 0.039 0.325s0.079 0.661 0.079 1.083a14.95 14.95 0 0 1 -2.753 0.419c-1.573 0.085 -3.258 -0.066 -4.147 -0.137 -0.051 -0.665 -0.034 -2.188 -0.079 -2.903l-0.601 -1.619c-0.62 0.505 -1.332 -0.76 -1.613 -1.154 -0.437 -0.611 -0.839 -1.248 -1.217 -1.897l1.701 -1.103c0.074 0.084 0.153 0.173 0.235 0.265a20.637 20.637 0 0 0 0.488 0.528"/><path class="e" d="M26.595 5.811Q27.511 7.8 28.316 9.838a0.335 0.335 0 0 0 0.4 0.227 0.327 0.327 0 0 0 0.227 -0.4q-0.835 -2.115 -1.787 -4.181a0.328 0.328 0 0 0 -0.445 -0.117 0.332 0.332 0 0 0 -0.117 0.445Z"/><path class="e" d="M37.781 10.947c1.344 0.483 2.005 1.873 2.273 3.181a4.368 4.368 0 0 1 -1.101 3.84 4.42 4.42 0 0 1 -1.839 1.161c-0.396 0.128 -0.227 0.756 0.173 0.627a4.997 4.997 0 0 0 3.445 -5.498 5.964 5.964 0 0 0 -0.794 -2.285 3.994 3.994 0 0 0 -1.984 -1.653c-0.394 -0.142 -0.564 0.486 -0.173 0.627Z"/><path class="e" d="M37.446 14.887a2.113 2.113 0 0 1 -0.13 0.44l0.033 -0.078a2.113 2.113 0 0 1 -0.271 0.462 0.325 0.325 0 0 0 -0.033 0.25 0.325 0.325 0 0 0 0.4 0.227l0.078 -0.033a0.325 0.325 0 0 0 0.117 -0.117 2.291 2.291 0 0 0 0.434 -0.979 0.349 0.349 0 0 0 -0.033 -0.25 0.325 0.325 0 0 0 -0.445 -0.117 0.32 0.32 0 0 0 -0.149 0.194Z"/><path class="a" d="M29.517 9.591a1.576 1.576 0 0 0 -0.734 0.164 1.357 1.357 0 0 0 -0.746 1.092 1.272 1.272 0 0 0 0.603 1.167 0.536 0.536 0 0 0 0.457 0.076l0.22 -0.087 1.154 -0.747 0.029 -0.263c0.043 -0.39 -0.029 -0.896 -0.387 -1.193a0.975 0.975 0 0 0 -0.596 -0.208"/><path class="e" d="M33.704 10.267c-0.805 0.484 -1.639 0.991 -2.241 1.728h0.46c-0.353 -0.354 -0.692 -0.723 -1.022 -1.098a0.327 0.327 0 0 0 -0.394 -0.051l-1.701 1.103a0.332 0.332 0 0 0 -0.117 0.445 29.9 29.9 0 0 0 1.554 2.389c0.364 0.505 1.046 1.292 1.721 0.779a0.336 0.336 0 0 0 0.117 -0.445 0.327 0.327 0 0 0 -0.445 -0.117 0.341 0.341 0 0 1 -0.132 0.073c0.021 -0.004 -0.058 -0.008 -0.057 -0.008a0.683 0.683 0 0 1 -0.253 -0.159 3.624 3.624 0 0 1 -0.542 -0.67c-0.483 -0.715 -0.967 -1.424 -1.403 -2.171l-0.117 0.445 1.701 -1.102 -0.394 -0.051c0.331 0.376 0.669 0.744 1.022 1.098a0.327 0.327 0 0 0 0.46 0c0.57 -0.697 1.347 -1.168 2.109 -1.626 0.358 -0.215 0.033 -0.777 -0.328 -0.561Z"/><path class="e" d="M30.825 10.992a1.736 1.736 0 0 0 -0.356 -1.295c-0.334 -0.399 -0.871 -0.486 -1.36 -0.393 -0.973 0.184 -1.673 1.222 -1.299 2.182 0.199 0.51 0.764 1.118 1.373 0.918a0.332 0.332 0 0 0 0.227 -0.4 0.328 0.328 0 0 0 -0.4 -0.227 0.153 0.153 0 0 1 -0.135 -0.005 0.699 0.699 0 0 1 -0.182 -0.115 0.975 0.975 0 0 1 -0.265 -0.366 0.929 0.929 0 0 1 0.061 -0.83 1.084 1.084 0 0 1 0.685 -0.506 1.17 1.17 0 0 1 0.423 -0.033 0.975 0.975 0 0 1 0.12 0.028c0.016 0.005 0.033 0.011 0.05 0.016 0.053 0.02 -0.033 -0.016 0.019 0.008a0.471 0.471 0 0 1 0.163 0.115 0.78 0.78 0 0 1 0.207 0.407c0.006 0.026 0.022 0.112 0.021 0.11 -0.004 -0.031 0.002 0.025 0.002 0.025 0.002 0.028 0.004 0.056 0.005 0.085a1.95 1.95 0 0 1 -0.01 0.276 0.327 0.327 0 0 0 0.325 0.325 0.332 0.332 0 0 0 0.325 -0.325Z"/><path class="e" d="M32.077 16.898c0.058 0.967 0.008 1.938 0.079 2.903a0.335 0.335 0 0 0 0.325 0.325c1.104 0.089 2.209 0.171 3.317 0.163a16.445 16.445 0 0 0 3.669 -0.455 0.33 0.33 0 0 0 0.239 -0.313 9.912 9.912 0 0 0 -0.079 -1.083 0.335 0.335 0 0 0 -0.325 -0.325 0.327 0.327 0 0 0 -0.325 0.325 9.912 9.912 0 0 1 0.079 1.083l0.239 -0.313a15.697 15.697 0 0 1 -3.572 0.432c-1.083 0.004 -2.163 -0.076 -3.242 -0.163l0.325 0.325c-0.071 -0.966 -0.02 -1.937 -0.079 -2.903 -0.025 -0.416 -0.675 -0.418 -0.65 0Z"/><path class="a" d="M35.753 16.486c-0.246 -0.626 -0.507 -1.601 -0.823 -2.484 -1.183 0.062 -2.257 0.125 -3.308 0.168q0.572 1.987 1.242 3.959c0.341 -0.03 0.903 -0.061 1.293 -0.104Z"/><path class="e" d="M36.066 16.4c-0.315 -0.813 -0.531 -1.663 -0.823 -2.484a0.333 0.333 0 0 0 -0.313 -0.239c-1.103 0.058 -2.205 0.123 -3.308 0.168a0.329 0.329 0 0 0 -0.313 0.411Q31.883 16.25 32.55 18.216a0.332 0.332 0 0 0 0.313 0.239c0.431 -0.037 0.863 -0.058 1.293 -0.104a0.335 0.335 0 0 0 0.325 -0.325 0.327 0.327 0 0 0 -0.325 -0.325c-0.43 0.046 -0.862 0.068 -1.293 0.104l0.313 0.239q-0.667 -1.965 -1.242 -3.959l-0.313 0.411c1.103 -0.046 2.205 -0.11 3.308 -0.168l-0.313 -0.238c0.293 0.822 0.508 1.671 0.823 2.484a0.335 0.335 0 0 0 0.4 0.227 0.328 0.328 0 0 0 0.227 -0.4Z"/><path class="a" d="M35.043 16.729a0.764 0.764 0 0 0 -0.142 0.063c-0.81 0.469 -0.585 1.646 -0.13 2.018 0.894 0.729 1.562 0.715 2.488 0.246 0.386 -0.262 0.649 -0.611 0.622 -1.137 -0.02 -0.393 -0.14 -0.649 -0.359 -0.78a0.772 0.772 0 0 0 -0.915 0.019 2.86 2.86 0 0 0 -0.988 -0.475 1.162 1.162 0 0 0 -0.576 0.047"/><path class="e" d="M34.957 16.416a1.441 1.441 0 0 0 -0.915 1.508 1.885 1.885 0 0 0 0.237 0.791 1.956 1.956 0 0 0 0.694 0.639 2.178 2.178 0 0 0 2.021 0.176 2.015 2.015 0 0 0 0.921 -0.646 1.482 1.482 0 0 0 0.293 -0.965c-0.018 -0.4 -0.142 -0.811 -0.491 -1.042a1.115 1.115 0 0 0 -1.272 0h0.328c-0.536 -0.37 -1.158 -0.664 -1.815 -0.461 -0.398 0.123 -0.228 0.751 0.173 0.627a0.943 0.943 0 0 1 0.659 0.029 3.006 3.006 0 0 1 0.655 0.366 0.315 0.315 0 0 0 0.328 0 0.492 0.492 0 0 1 0.611 -0.005 0.39 0.39 0 0 1 0.111 0.157 1.056 1.056 0 0 1 0.065 0.377c0.008 0.49 -0.353 0.789 -0.784 0.953a1.515 1.515 0 0 1 -1.343 -0.05 2.925 2.925 0 0 1 -0.37 -0.242 1.3 1.3 0 0 1 -0.109 -0.092c-0.013 -0.013 -0.025 -0.026 -0.037 -0.039a0.65 0.65 0 0 1 -0.027 -0.032q0.028 0.037 0.008 0.009a1.3 1.3 0 0 1 -0.064 -0.101c-0.008 -0.014 -0.062 -0.123 -0.042 -0.078a1.463 1.463 0 0 1 -0.086 -0.287 1.115 1.115 0 0 1 0.036 -0.547 0.692 0.692 0 0 1 0.39 -0.418 0.333 0.333 0 0 0 0.227 -0.4 0.328 0.328 0 0 0 -0.4 -0.227"/><path class="e" d="M33.353 5.989c-0.612 1.116 -0.734 2.506 -0.086 3.639a3.24 3.24 0 0 0 5.168 0.585c0.287 -0.304 -0.171 -0.764 -0.46 -0.46a2.618 2.618 0 0 1 -3.606 0.205c-1.059 -0.929 -1.1 -2.465 -0.455 -3.642 0.201 -0.367 -0.36 -0.695 -0.561 -0.328Z"/><path class="e" d="M34.84 7.551a0.509 0.509 0 0 1 -0.24 0.364 0.397 0.397 0 0 1 -0.295 0.03 0.445 0.445 0 0 1 -0.299 -0.268 0.52 0.52 0 0 1 0.179 -0.585 0.411 0.411 0 0 1 0.554 0.078 0.458 0.458 0 0 1 0.1 0.38"/><path class="e" d="M36.709 8.25a0.51 0.51 0 0 1 -0.24 0.364 0.397 0.397 0 0 1 -0.295 0.03 0.444 0.444 0 0 1 -0.299 -0.268 0.52 0.52 0 0 1 0.179 -0.585 0.411 0.411 0 0 1 0.554 0.078 0.458 0.458 0 0 1 0.1 0.38"/><path class="e" d="M33.915 6.317a3.039 3.039 0 0 1 0.962 -1.249 2.795 2.795 0 0 1 1.595 -0.481c1.058 -0.025 2.087 0.439 2.595 1.401a2.59 2.59 0 0 1 0.226 1.851c-0.104 0.405 0.522 0.578 0.627 0.173a3.25 3.25 0 0 0 -1.256 -3.437c-1.102 -0.764 -2.704 -0.885 -3.886 -0.214a3.489 3.489 0 0 0 -1.424 1.629 0.335 0.335 0 0 0 0.117 0.445 0.328 0.328 0 0 0 0.445 -0.117"/><path class="e" d="M34.114 5.787a3.744 3.744 0 0 0 1.247 0.96c0.215 0.101 0.544 0.286 0.789 0.219 0.337 -0.092 0.33 -0.485 0.376 -0.766l-0.543 0.143c0.351 0.315 0.699 0.633 1.052 0.945a2.974 2.974 0 0 0 1.008 0.554c0.396 0.137 0.566 -0.49 0.173 -0.627 -0.712 -0.247 -1.225 -0.839 -1.773 -1.331 -0.164 -0.147 -0.501 -0.115 -0.543 0.143a1.511 1.511 0 0 1 -0.077 0.444l0.117 -0.117 -0.04 0.016 0.164 -0.044a1.137 1.137 0 0 1 -0.375 -0.142 3.413 3.413 0 0 1 -0.42 -0.234 3.25 3.25 0 0 1 -0.696 -0.624c-0.272 -0.319 -0.729 0.143 -0.46 0.46Z"/><path class="e" d="M33.815 10.674a6.338 6.338 0 0 0 0.498 1.697 4.875 4.875 0 0 0 0.393 0.726 0.66 0.66 0 0 0 0.375 0.313 0.611 0.611 0 0 0 0.466 -0.092 3.933 3.933 0 0 0 0.638 -0.569q0.272 -0.273 0.518 -0.571a8.613 8.613 0 0 0 0.931 -1.394c0.198 -0.368 -0.363 -0.697 -0.561 -0.328a7.995 7.995 0 0 1 -1.671 2.142c-0.046 0.042 -0.091 0.087 -0.14 0.125 -0.02 0.016 -0.081 0.041 -0.086 0.057q0.165 0.086 0.104 0.011a4.937 4.937 0 0 1 -0.143 -0.232 5.2 5.2 0 0 1 -0.309 -0.617 5.98 5.98 0 0 1 -0.388 -1.44 0.327 0.327 0 0 0 -0.4 -0.227 0.334 0.334 0 0 0 -0.227 0.4Z"/></svg>