<svg version="1.1" id="Layer_1" xmlns="http://www.w3.org/2000/svg" xmlns:xlink="http://www.w3.org/1999/xlink" x="0px" y="0px" viewBox="0 0 130 130" style="enable-background:new 0 0 512 512;" xml:space="preserve" width="130" height="130"><path style="fill:#2D2D2D;" d="M0 90.188v-82.266a2.689 2.689 0 0 1 2.641 -2.641h124.719a2.689 2.689 0 0 1 2.641 2.641v82.266z"/><g><path style="fill:#BCBCBC;" d="M130 90.188v10.563a2.689 2.689 0 0 1 -2.641 2.641H2.641a2.689 2.689 0 0 1 -2.641 -2.641v-10.563z"/><path x="146.401" y="480.799" style="fill:#BCBCBC;" width="219.197" height="10.4" d="M37.172 122.078H92.828V124.718H37.172V122.078z"/></g><path style="fill:#2D2D2D;" points="328.8,480.802 183.2,480.802 193.6,407.202 318.4,407.202 " d="M83.484 122.079L46.516 122.079L49.156 103.391L80.844 103.391Z"/><path x="20.802" y="41.605" style="fill:#FFFFFF;" width="470.397" height="292.803" d="M5.282 10.564H124.718V84.908H5.282V10.564z"/><path points="318.4,407.202 193.6,407.202 187.793,448.282 320.272,420.426 " d="M80.844 103.391L49.156 103.391L47.682 113.822L81.319 106.749Z"/><path style="fill:#2D2D2D;" cx="378.97" cy="180.181" r="20.762" d="M101.494 45.749A5.272 5.272 0 0 1 96.223 51.021A5.272 5.272 0 0 1 90.951 45.749A5.272 5.272 0 0 1 101.494 45.749z"/><path style="fill:#E21B1B;" d="M113.535 48.344v-5.192l-5.281 -0.528a11.807 11.807 0 0 0 -1.357 -3.114l3.4 -4.166 -3.656 -3.666 -4.331 3.542a11.807 11.807 0 0 0 -2.905 -1.075L98.827 28.438h-5.212l-0.571 5.702a11.807 11.807 0 0 0 -2.905 1.075l-4.331 -3.542 -3.668 3.673 3.406 4.164a11.832 11.832 0 0 0 -1.357 3.114l-5.281 0.528V48.344l5.281 0.528a11.934 11.934 0 0 0 1.351 3.11l-3.409 4.166 3.67 3.67 4.339 -3.553a11.832 11.832 0 0 0 2.905 1.075l0.571 5.7h5.212l0.571 -5.702a11.807 11.807 0 0 0 2.905 -1.075l4.337 3.553 3.656 -3.67 -3.402 -4.166a11.908 11.908 0 0 0 1.351 -3.11zm-17.315 5.212c-4.312 0 -7.808 -3.496 -7.808 -7.808s3.496 -7.808 7.808 -7.808 7.808 3.496 7.808 7.808c0 4.312 -3.495 7.807 -7.806 7.808z"/><path style="fill:#2D2D2D;" cx="177.14" cy="185.855" r="34.184" d="M53.656 47.19A8.68 8.68 0 0 1 44.977 55.869A8.68 8.68 0 0 1 36.297 47.19A8.68 8.68 0 0 1 53.656 47.19z"/><path style="fill:#999999;" d="M73.489 51.462v-8.548l-8.692 -0.867a19.424 19.424 0 0 0 -2.234 -5.127l5.602 -6.857 -6.045 -6.045 -7.13 5.842a19.424 19.424 0 0 0 -4.782 -1.769l-0.94 -9.403h-8.585l-0.938 9.388a19.424 19.424 0 0 0 -4.782 1.769l-7.136 -5.828 -6.041 6.045 5.61 6.855a19.475 19.475 0 0 0 -2.234 5.127l-8.7 0.869v8.548l8.714 0.871a19.652 19.652 0 0 0 2.234 5.121l-5.614 6.862 6.031 6.043 7.13 -5.834a19.449 19.449 0 0 0 4.782 1.769l0.938 9.388h8.584l0.938 -9.388a19.424 19.424 0 0 0 4.782 -1.769l7.13 5.834 6.045 -6.045 -5.614 -6.862a19.627 19.627 0 0 0 2.234 -5.121zM44.976 60.046c-7.101 0 -12.858 -5.757 -12.858 -12.858s5.757 -12.858 12.858 -12.858 12.858 5.757 12.858 12.858 -5.757 12.858 -12.858 12.858"/></svg>