<svg version="1.1" id="Uploaded to svgrepo.com" xmlns="http://www.w3.org/2000/svg" xmlns:xlink="http://www.w3.org/1999/xlink" width="130px" height="130px" viewBox="0 0 5.2 5.2" xml:space="preserve"><style type="text/css">.flatshadows_een{fill:#FDFFFF;}
	.flatshadows_twee{fill:#E1E5E5;}
	.flatshadows_drie{fill:#C4CCCC;}
	.flatshadows_vijf{fill:#8D9999;}
	.st0{fill:#A3AFAF;}
	.st1{fill:#C4CCCC;}
	.st2{fill:#404041;}
	.st3{fill:#737F7F;}</style><g><path class="flatshadows_twee" points="28,32 4,32 4,6 10,0 28,0 	" d="M4.55 5.2L0.65 5.2L0.65 0.975L1.625 0L4.55 0Z"/><path class="flatshadows_drie" points="4,6 6,8 12,8 12,2 10,0 	" d="M0.65 0.975L0.975 1.3L1.95 1.3L1.95 0.325L1.625 0Z"/><path class="flatshadows_een" points="10,0 10,6 4,6 	" d="M1.625 0L1.625 0.975L0.65 0.975Z"/><g><g><path x="13" y="13" class="flatshadows_vijf" width="6" height="1" d="M2.113 2.113H3.087V2.275H2.113V2.113z"/><path x="13" y="15" class="flatshadows_vijf" width="6" height="1" d="M2.113 2.438H3.087V2.6H2.113V2.438z"/><path x="13" y="17" class="flatshadows_vijf" width="6" height="1" d="M2.113 2.763H3.087V2.925H2.113V2.763z"/></g><g><path x="13" y="13" class="flatshadows_vijf" width="6" height="1" d="M2.113 2.113H3.087V2.275H2.113V2.113z"/><path x="13" y="15" class="flatshadows_vijf" width="6" height="1" d="M2.113 2.438H3.087V2.6H2.113V2.438z"/><path x="13" y="17" class="flatshadows_vijf" width="6" height="1" d="M2.113 2.763H3.087V2.925H2.113V2.763z"/></g></g></g></svg>