<svg version="1.1" id="Uploaded to svgrepo.com" xmlns="http://www.w3.org/2000/svg" xmlns:xlink="http://www.w3.org/1999/xlink" width="130px" height="130px" viewBox="0 0 5.2 5.2" xml:space="preserve"><style type="text/css">.avocado_een{fill:#231F20;}
	.avocado_vijf{fill:#DBD2C1;}
	.avocado_zes{fill:#FFFAEE;}
	.st0{fill:#E0A838;}
	.st1{fill:#EAD13F;}
	.st2{fill:#788287;}
	.st3{fill:#3D3935;}
	.st4{fill:#6F9B45;}
	.st5{fill:#CC4121;}
	.st6{fill:#E598A3;}
	.st7{fill:#D36781;}
	.st8{fill:#8D3E93;}
	.st9{fill:#BF63C1;}
	.st10{fill:#A3AEB5;}
	.st11{fill:#AF9480;}
	.st12{fill:#716558;}
	.st13{fill:#0E608E;}
	.st14{fill:#248EBC;}
	.st15{fill:#D1712A;}
	.st16{fill:#C3CC6A;}</style><g><path class="avocado_zes" points="17.207,26.5 10.5,26.5 10.5,17.793 9.207,16.5 2.5,16.5 2.5,2.5 21.5,2.5 21.5,12.5 
		29.5,12.5 29.5,26.5 22.793,26.5 20,29.293 	" d="M2.796 4.306L1.706 4.306L1.706 2.891L1.496 2.681L0.406 2.681L0.406 0.406L3.494 0.406L3.494 2.031L4.794 2.031L4.794 4.306L3.704 4.306L3.25 4.76Z"/><g><g><path class="avocado_vijf" d="M3.9 2.763v0.163h-1.3l-0.65 0.65 -0.244 -0.244v-0.441l0.244 0.244 0.453 -0.453H3.494v-0.65H3.738V2.763zm-1.3 0.488h1.3v-0.163h-1.3zm0 0.325h1.3v-0.163h-1.3zm0 -2.438H1.3v0.163h1.3zm0 0.325H1.3v0.163h1.3zm0 0.325H1.3v0.163h1.3z"/></g></g><path class="avocado_een" d="M3.575 1.95V0.325H0.325v2.438h1.137l0.163 0.163v1.463h1.137l0.488 0.488 0.488 -0.488h1.137V1.95zM1.53 2.6H0.488V0.488h2.925v2.113h-1.042L1.95 3.02zM4.713 4.225h-1.042L3.25 4.645 2.83 4.225H1.788v-1.137l0.163 0.163 0.488 -0.488h1.137v-0.65h1.137z"/></g></svg>