<svg version="1.1" id="Layer_1" xmlns="http://www.w3.org/2000/svg" xmlns:xlink="http://www.w3.org/1999/xlink" x="0px" y="0px" viewBox="0 0 130 130" style="enable-background:new 0 0 512 512;" xml:space="preserve" width="130" height="130"><path style="fill:#3B8BC0;" d="M65 39.446 0 25.762v86.857l65 10.589 6.161 -41.881z"/><path style="fill:#174461;" points="256,155.358 256,485.249 512,443.546 512,101.463 " d="M65 39.446L65 123.208L130 112.619L130 25.762Z"/><path style="fill:#4EB9FF;" points="256,106.827 0,65.065 0,407.148 256,448.851 280.265,283.905 " d="M65 27.124L0 16.52L0 103.377L65 113.966L71.161 72.085Z"/><path style="fill:#3B8BC0;" points="256,106.827 256,448.851 512,407.148 512,65.065 " d="M65 27.124L65 113.966L130 103.377L130 16.52Z"/><path style="fill:#FFF5D9;" points="256,70.429 280.265,234.221 256,398.012 48.531,354.334 48.531,26.751 " d="M65 17.882L71.161 59.47L65 101.058L12.322 89.968L12.322 6.792Z"/><g><path style="fill:#3B8BC0;" d="M52.681 39.178q-0.318 0.001 -0.641 -0.068L24.007 33.179c-1.664 -0.352 -2.728 -1.987 -2.376 -3.652 0.352 -1.665 1.988 -2.726 3.652 -2.376l28.033 5.932c1.664 0.352 2.728 1.987 2.376 3.652 -0.307 1.449 -1.586 2.443 -3.011 2.443"/><path style="fill:#3B8BC0;" d="M52.681 59.972q-0.318 0.001 -0.641 -0.068L24.007 53.973c-1.664 -0.352 -2.728 -1.987 -2.376 -3.652 0.352 -1.665 1.988 -2.727 3.652 -2.376l28.033 5.932c1.664 0.352 2.728 1.987 2.376 3.652 -0.307 1.449 -1.586 2.443 -3.011 2.443"/><path style="fill:#3B8BC0;" d="M52.681 80.766c-0.212 0 -0.426 -0.022 -0.641 -0.068L24.007 74.767c-1.664 -0.352 -2.728 -1.987 -2.376 -3.652 0.352 -1.665 1.988 -2.727 3.652 -2.376l28.033 5.932c1.664 0.352 2.728 1.987 2.376 3.652 -0.307 1.449 -1.586 2.443 -3.011 2.443"/></g><path style="fill:#9AD7FF;" points="256,70.429 256,398.012 463.469,354.334 463.469,26.751 " d="M65 17.882L65 101.058L117.678 89.968L117.678 6.792Z"/><g><path style="fill:#174461;" d="M77.319 39.178c-1.425 0 -2.704 -0.994 -3.011 -2.444 -0.352 -1.664 0.712 -3.299 2.376 -3.652l28.033 -5.932c1.666 -0.352 3.3 0.712 3.652 2.376s-0.712 3.299 -2.376 3.652l-28.033 5.932q-0.324 0.068 -0.641 0.068"/><path style="fill:#174461;" d="M77.319 59.972c-1.425 0 -2.704 -0.994 -3.011 -2.444 -0.352 -1.664 0.712 -3.299 2.376 -3.652l28.033 -5.932c1.666 -0.352 3.3 0.712 3.652 2.376s-0.712 3.299 -2.376 3.652l-28.033 5.932q-0.324 0.068 -0.641 0.068"/><path style="fill:#174461;" d="M77.319 80.766c-1.425 0 -2.704 -0.994 -3.011 -2.444 -0.352 -1.664 0.712 -3.299 2.376 -3.652l28.033 -5.932c1.666 -0.351 3.3 0.712 3.652 2.376s-0.712 3.299 -2.376 3.652l-28.033 5.932q-0.324 0.068 -0.641 0.068"/></g></svg>