<svg version="1.1" id="Layer_1" xmlns="http://www.w3.org/2000/svg" xmlns:xlink="http://www.w3.org/1999/xlink" x="0px" y="0px" viewBox="0 0 130 130" style="enable-background:new 0 0 512 512;" xml:space="preserve" width="130" height="130"><g><path style="fill:#507C5C;" d="M74.758 43.838c0 -0.115 0.038 -0.267 0.076 -0.419l7.094 -23.266c0.42 -1.335 2.136 -1.984 3.89 -1.984s3.471 0.648 3.89 1.984l7.132 23.266c0.038 0.153 0.076 0.305 0.076 0.419 0 1.411 -2.174 2.441 -3.814 2.441 -0.954 0 -1.716 -0.305 -1.945 -1.106l-1.297 -4.768H81.814l-1.297 4.768c-0.229 0.801 -0.992 1.106 -1.945 1.106 -1.64 0 -3.813 -1.03 -3.813 -2.441m13.845 -8.01 -2.784 -10.222 -2.784 10.222z"/><path style="fill:#507C5C;" d="M97.79 25.311V22.603h-2.707c-0.782 0 -1.312 -0.698 -1.312 -1.758 0 -1.005 0.53 -1.786 1.312 -1.786h2.707V16.38c0 -0.67 0.781 -1.339 1.786 -1.339 1.061 0 1.758 0.67 1.758 1.339v2.679h2.679c0.67 0 1.34 0.781 1.34 1.786 0 1.06 -0.67 1.758 -1.34 1.758h-2.679v2.707c0 0.781 -0.698 1.311 -1.758 1.311 -1.005 0 -1.786 -0.53 -1.786 -1.311"/><path style="fill:#507C5C;" d="M105.809 130H24.191c-7.401 0 -13.422 -6.021 -13.422 -13.423V29.484c0 -4.042 1.573 -7.84 4.43 -10.696l14.357 -14.358C31.868 2.117 34.923 0.598 38.157 0.15A14.473 14.473 0 0 1 40.252 0h65.557c7.401 0 13.422 6.021 13.422 13.423v69.219c0 2.072 -1.681 3.753 -3.753 3.753s-3.753 -1.681 -3.753 -3.753V13.423c0 -3.262 -2.654 -5.917 -5.916 -5.917H40.252c-0.352 0 -0.693 0.024 -1.015 0.072l-0.042 0.006c-1.628 0.223 -3.166 0.988 -4.331 2.153L20.506 24.095c-1.439 1.439 -2.231 3.352 -2.231 5.388v87.094c0 3.262 2.654 5.917 5.916 5.917h81.618c3.262 0 5.916 -2.654 5.916 -5.917v-12.357c0 -2.072 1.681 -3.753 3.753 -3.753s3.753 1.681 3.753 3.753v12.357c-0.001 7.401 -6.022 13.423 -13.422 13.423"/></g><path style="fill:#CFF09E;" d="M38.685 3.866v122.381H24.191c-5.34 0 -9.67 -4.33 -9.67 -9.67V29.484a11.37 11.37 0 0 1 3.33 -8.043l14.357 -14.357a11.345 11.345 0 0 1 6.476 -3.218"/><g><path style="fill:#507C5C;" d="M38.685 130H24.191c-7.401 0 -13.422 -6.021 -13.422 -13.423V29.484c0 -4.042 1.573 -7.84 4.43 -10.696l14.357 -14.358c2.317 -2.317 5.378 -3.838 8.62 -4.282a3.75 3.75 0 0 1 2.977 0.89 3.753 3.753 0 0 1 1.286 2.828v122.381c0 2.072 -1.681 3.753 -3.753 3.753M34.932 9.67q-0.035 0.034 -0.069 0.068L20.506 24.095c-1.439 1.439 -2.231 3.352 -2.231 5.388v87.094c0 3.262 2.654 5.917 5.916 5.917h10.741V9.67z"/><path style="fill:#507C5C;" d="M94.273 86.395H38.685c-2.072 0 -3.753 -1.681 -3.753 -3.753s1.681 -3.753 3.753 -3.753h55.588c2.072 0 3.753 1.681 3.753 3.753s-1.68 3.753 -3.753 3.753"/><path style="fill:#507C5C;" d="M94.273 64.437H38.685c-2.072 0 -3.753 -1.681 -3.753 -3.753s1.681 -3.753 3.753 -3.753h55.588c2.072 0 3.753 1.681 3.753 3.753 0 2.072 -1.68 3.753 -3.753 3.753"/><path style="fill:#507C5C;" d="M94.273 108.353H38.685c-2.072 0 -3.753 -1.681 -3.753 -3.753s1.681 -3.753 3.753 -3.753h55.588c2.072 0 3.753 1.681 3.753 3.753s-1.68 3.753 -3.753 3.753"/></g></svg>