<svg width="130px" height="130px" viewBox="0 0 166.4 166.4" class="icon" version="1.1" xmlns="http://www.w3.org/2000/svg"><path d="M26.374 99.417c-2.21 0 -3.998 1.836 -3.998 4.095v42.364c0 2.259 1.788 4.095 3.998 4.095s3.998 -1.836 3.998 -4.095V103.513c0 -2.259 -1.788 -4.095 -3.998 -4.095M63.635 115.375c-2.21 0 -3.998 1.722 -3.998 3.851v26.894c0 2.129 1.788 3.851 3.998 3.851s3.998 -1.722 3.998 -3.851V119.226c-0.016 -2.129 -1.804 -3.851 -3.998 -3.851m34.58 -21.288c-2.21 0 -3.998 1.771 -3.998 3.949v47.97c0 2.178 1.788 3.949 3.998 3.949s3.998 -1.771 3.998 -3.949V98.052c0 -2.194 -1.788 -3.965 -3.998 -3.965m34.434 -19.581c-2.21 0 -3.998 1.788 -3.998 3.998V146.575c0 2.21 1.788 3.998 3.998 3.998s3.998 -1.788 3.998 -3.998V78.487c-0.016 -2.194 -1.788 -3.981 -3.998 -3.981m14.397 -59.199H106.974c-2.21 0 -3.998 1.788 -3.998 3.998s1.788 3.998 3.998 3.998h30.696L75.79 85.15 50.554 59.914c-1.495 -1.495 -4.144 -1.495 -5.639 0l-28.438 28.421c-1.56 1.56 -1.56 4.079 0 5.639 0.78 0.78 1.804 1.17 2.827 1.17s2.047 -0.39 2.827 -1.17l25.594 -25.594L72.963 93.616c1.56 1.56 4.079 1.56 5.639 0l64.431 -64.431v30.176c0 2.21 1.788 3.998 3.998 3.998s3.998 -1.788 3.998 -3.998V19.289c0 -2.194 -1.788 -3.981 -3.981 -3.981" fill="#FCA128"/></svg>