<svg version="1.1" id="Layer_1" xmlns="http://www.w3.org/2000/svg" xmlns:xlink="http://www.w3.org/1999/xlink" x="0px" y="0px" viewBox="0 0 130 130" style="enable-background:new 0 0 512 512;" xml:space="preserve" width="130" height="130"><path style="fill:#959CB5;" d="M123.622 116.023H41.118c-2.398 0 -4.342 -1.944 -4.342 -4.342V66.086c0 -2.398 1.944 -4.342 4.342 -4.342h82.505c2.398 0 4.342 1.944 4.342 4.342V111.681c0 2.398 -1.944 4.342 -4.342 4.342"/><path style="fill:#7F8499;" d="M67.45 61.743H41.118c-2.398 0 -4.342 1.944 -4.342 4.342v17.369c14.174 0 26.199 -9.071 30.675 -21.712"/><path style="fill:#E4EAF8;" d="M95.668 55.23c-10.33 0 -13.282 3.145 -13.282 3.145s-2.951 -3.145 -13.282 -3.145c-9.144 0 -19.773 2.265 -22.781 2.951 -0.494 0.113 -0.831 0.549 -0.831 1.056v47.712c0 0.695 0.631 1.213 1.31 1.062 3.535 -0.788 13.592 -2.843 22.303 -2.843 7.03 0 10.642 1.457 12.233 2.387a2.079 2.079 0 0 0 2.097 0c1.591 -0.931 5.204 -2.387 12.233 -2.387 8.711 0 18.768 2.055 22.303 2.843 0.678 0.151 1.31 -0.367 1.31 -1.062v-47.712c0 -0.507 -0.337 -0.943 -0.831 -1.056 -3.009 -0.686 -13.637 -2.951 -22.781 -2.951"/><path style="fill:#D5DCED;" d="M69.02 55.231c-9.126 0.014 -19.699 2.266 -22.698 2.95 -0.494 0.113 -0.831 0.549 -0.831 1.056v23.003c12.391 -3.439 21.79 -13.998 23.529 -27.009"/><path style="fill:#00C3FF;" cx="144.834" cy="200.417" r="102.613" d="M62.828 50.887A26.054 26.054 0 0 1 36.774 76.941A26.054 26.054 0 0 1 10.72 50.887A26.054 26.054 0 0 1 62.828 50.887z"/><path style="fill:#00AAF0;" d="M47.631 70.428c-15.588 0 -28.225 -12.637 -28.225 -28.225 0 -4.778 1.197 -9.273 3.293 -13.218 -7.198 4.636 -11.978 12.704 -11.978 21.903 0 14.389 11.665 26.054 26.054 26.054 7.149 0 13.622 -2.884 18.329 -7.546 -2.384 0.654 -4.882 1.032 -7.474 1.032"/><path d="M123.622 59.708h-2.307v-1.333a2.036 2.036 0 0 0 -1.551 -1.977c-0.534 -0.131 -13.2 -3.204 -24.097 -3.204 -7.371 0 -11.359 1.556 -13.282 2.683 -1.922 -1.127 -5.911 -2.683 -13.282 -2.683 -1.36 0 -2.817 0.05 -4.347 0.147 0.071 -0.809 0.109 -1.627 0.109 -2.454 0 -15.489 -12.601 -28.09 -28.09 -28.09s-28.09 12.601 -28.09 28.09c0 14.804 11.512 26.969 26.054 28.015v32.778c0 3.517 2.861 6.378 6.378 6.378h82.505c3.517 0 6.378 -2.861 6.378 -6.378V66.085c0 -3.516 -2.861 -6.377 -6.378 -6.377M25.328 29.777a25.391 25.391 0 0 0 -1.058 1.662c-0.446 0.764 -0.858 1.568 -1.244 2.399a47.48 47.48 0 0 1 -2.312 -0.793 24.121 24.121 0 0 1 4.614 -3.269m-7.586 6.479a51.797 51.797 0 0 0 3.799 1.384c-1.114 3.439 -1.78 7.246 -1.951 11.212h-6.746c0.398 -4.715 2.163 -9.047 4.898 -12.596m-4.898 16.667h6.746c0.171 3.967 0.837 7.773 1.951 11.212a51.543 51.543 0 0 0 -3.799 1.384c-2.735 -3.549 -4.5 -7.881 -4.898 -12.596m7.87 15.807a46.973 46.973 0 0 1 2.312 -0.793c0.386 0.832 0.799 1.635 1.244 2.399a25.391 25.391 0 0 0 1.058 1.662 24.121 24.121 0 0 1 -4.614 -3.268m14.026 5.874c-3.005 -0.894 -5.707 -3.722 -7.696 -7.737a45.551 45.551 0 0 1 7.696 -1zm0 -12.811a49.588 49.588 0 0 0 -9.252 1.253c-1.002 -3.033 -1.648 -6.476 -1.825 -10.123h11.077v8.87zm0 -12.942H23.663c0.177 -3.647 0.823 -7.091 1.825 -10.123a49.613 49.613 0 0 0 9.252 1.253zm0 -12.944a45.576 45.576 0 0 1 -7.696 -1c1.989 -4.015 4.691 -6.843 7.696 -7.737zm25.967 12.944h-6.746c-0.171 -3.966 -0.837 -7.773 -1.951 -11.212a51.543 51.543 0 0 0 3.799 -1.384c2.735 3.549 4.5 7.881 4.898 12.596m-8.697 15.282c1.114 -3.439 1.78 -7.245 1.951 -11.211h6.746c-0.398 4.715 -2.163 9.046 -4.897 12.595a51.543 51.543 0 0 0 -3.8 -1.384m0.827 4.596a24.121 24.121 0 0 1 -4.614 3.269 25.391 25.391 0 0 0 1.058 -1.663c0.446 -0.764 0.858 -1.568 1.245 -2.4q1.162 0.365 2.312 0.793m-0.001 -35.685a46.973 46.973 0 0 1 -2.312 0.793c-0.386 -0.832 -0.799 -1.635 -1.244 -2.399a25.391 25.391 0 0 0 -1.058 -1.663 24.172 24.172 0 0 1 4.614 3.269m-14.026 -5.874c3.005 0.894 5.707 3.722 7.696 7.737a45.551 45.551 0 0 1 -7.696 1zm0 12.811a49.613 49.613 0 0 0 9.252 -1.252c1.002 3.033 1.648 6.476 1.825 10.123h-11.077v-8.87zm0 12.942h11.077c-0.177 3.647 -0.823 7.09 -1.825 10.122a49.639 49.639 0 0 0 -9.252 -1.252v-8.87zm0 12.944a45.551 45.551 0 0 1 7.695 1.001c-1.989 4.014 -4.691 6.843 -7.695 7.736zm41.524 48.12H41.118c-1.272 0 -2.307 -1.035 -2.307 -2.307V78.903a27.93 27.93 0 0 0 4.645 -0.73v30.14a2.035 2.035 0 0 0 2.52 1.977c0.126 -0.031 12.718 -3.087 23.128 -3.087 6.737 0 9.998 1.405 11.231 2.128v4.657h0zm-11.231 -10.856c-8.133 0 -17.253 1.712 -21.577 2.635v-28.93c4.188 -1.742 7.866 -4.468 10.745 -7.889 4.047 -0.546 7.692 -0.826 10.832 -0.826 1.549 0 3.016 0.075 4.36 0.222 1.118 0.124 2.123 -0.684 2.245 -1.801a2.035 2.035 0 0 0 -1.801 -2.245c-1.491 -0.164 -3.107 -0.247 -4.804 -0.247 -2.345 0 -4.945 0.147 -7.756 0.433a27.904 27.904 0 0 0 2.736 -7.014c1.789 -0.135 3.474 -0.204 5.019 -0.204 6.739 0 9.999 1.405 11.231 2.128V104.84c-2.289 -0.883 -5.862 -1.709 -11.231 -1.709m48.14 -43.133v45.768c-4.324 -0.923 -13.444 -2.635 -21.576 -2.635 -5.394 0 -8.975 0.833 -11.262 1.722V59.413c1.206 -0.717 4.463 -2.147 11.262 -2.147 8.245 0 17.88 1.922 21.576 2.733m8.685 51.682c0 1.272 -1.035 2.307 -2.307 2.307H84.405V109.35c1.207 -0.717 4.464 -2.147 11.262 -2.147 10.397 0 23.002 3.056 23.128 3.087a2.035 2.035 0 0 0 2.52 -1.977V63.779h2.307c1.272 0 2.307 1.035 2.307 2.307V111.681h0z"/><path d="M73.908 90.351c-1.491 -0.164 -3.107 -0.247 -4.804 -0.247 -1.326 0 -2.75 0.047 -4.231 0.139a2.036 2.036 0 0 0 0.253 4.063c1.398 -0.087 2.737 -0.131 3.979 -0.131 1.549 0 3.016 0.075 4.36 0.222a2.036 2.036 0 0 0 0.444 -4.047"/><path d="M56.014 91.207c-0.719 0.107 -1.46 0.224 -2.203 0.347a2.035 2.035 0 1 0 0.666 4.016c0.688 -0.114 1.403 -0.227 2.138 -0.337 1.112 -0.166 1.879 -1.201 1.713 -2.313s-1.202 -1.88 -2.314 -1.713"/><path d="M73.908 81.666c-1.491 -0.164 -3.107 -0.247 -4.804 -0.247 -4.349 0 -9.494 0.488 -15.294 1.45a2.036 2.036 0 0 0 0.666 4.016c5.58 -0.926 10.501 -1.395 14.627 -1.395 1.549 0 3.016 0.075 4.36 0.222 1.118 0.124 2.123 -0.684 2.245 -1.801a2.035 2.035 0 0 0 -1.801 -2.245"/><path d="M73.908 72.982a40.371 40.371 0 0 0 -2.287 -0.183c-1.118 -0.06 -2.08 0.804 -2.139 1.927a2.035 2.035 0 0 0 1.927 2.139c0.707 0.037 1.399 0.092 2.055 0.164a2.036 2.036 0 0 0 0.444 -4.047"/><path d="M54.141 78.229q0.166 0 0.336 -0.028c3.014 -0.5 5.885 -0.872 8.53 -1.104a2.036 2.036 0 0 0 1.849 -2.206c-0.099 -1.12 -1.086 -1.945 -2.206 -1.849 -2.749 0.242 -5.724 0.627 -8.84 1.144a2.036 2.036 0 0 0 0.331 4.043"/><path d="M91.052 94.41q0.111 0 0.224 -0.012c1.344 -0.147 2.811 -0.222 4.36 -0.222 1.242 0 2.581 0.044 3.979 0.131 1.119 0.074 2.088 -0.783 2.158 -1.905s-0.783 -2.088 -1.905 -2.158c-1.482 -0.092 -2.905 -0.139 -4.231 -0.139 -1.697 0 -3.313 0.083 -4.804 0.247a2.035 2.035 0 0 0 -1.801 2.245 2.035 2.035 0 0 0 2.021 1.814"/><path d="M110.93 91.555a136.602 136.602 0 0 0 -2.204 -0.347c-1.112 -0.167 -2.148 0.602 -2.313 1.713a2.036 2.036 0 0 0 1.713 2.313c0.735 0.11 1.45 0.222 2.138 0.337q0.169 0.028 0.335 0.028a2.036 2.036 0 0 0 2.006 -1.703 2.036 2.036 0 0 0 -1.675 -2.341"/><path d="M91.277 85.713c1.344 -0.147 2.811 -0.222 4.36 -0.222 4.126 0 9.047 0.469 14.627 1.395q0.17 0.028 0.336 0.028a2.035 2.035 0 0 0 0.331 -4.043c-5.799 -0.962 -10.945 -1.45 -15.294 -1.45 -1.697 0 -3.313 0.083 -4.804 0.247a2.035 2.035 0 0 0 -1.801 2.245c0.122 1.117 1.126 1.925 2.245 1.801"/><path d="M91.052 77.04q0.111 0 0.224 -0.012a36.309 36.309 0 0 1 2.055 -0.164 2.036 2.036 0 0 0 -0.212 -4.066c-0.784 0.041 -1.553 0.102 -2.287 0.183a2.035 2.035 0 0 0 -1.801 2.245 2.035 2.035 0 0 0 2.021 1.814"/><path d="M110.93 74.185c-3.116 -0.517 -6.091 -0.902 -8.84 -1.144 -1.117 -0.099 -2.108 0.729 -2.206 1.849a2.036 2.036 0 0 0 1.849 2.206c2.646 0.233 5.516 0.604 8.53 1.104q0.17 0.028 0.336 0.028a2.036 2.036 0 0 0 0.331 -4.043"/><path d="M91.277 68.343c1.344 -0.147 2.811 -0.222 4.36 -0.222 4.126 0 9.047 0.469 14.627 1.395q0.17 0.028 0.336 0.028a2.035 2.035 0 0 0 0.331 -4.043c-5.799 -0.962 -10.944 -1.45 -15.294 -1.45 -1.697 0 -3.313 0.083 -4.804 0.247a2.035 2.035 0 0 0 -1.801 2.245c0.122 1.117 1.126 1.925 2.245 1.801"/><path d="M36.776 16.013c15.705 0 29.202 10.426 33.472 25.04l-1.678 -1.513a2.036 2.036 0 0 0 -2.726 3.024l6.242 5.629a2.034 2.034 0 0 0 1.892 0.454 2.036 2.036 0 0 0 1.409 -1.341l2.629 -8.158a2.035 2.035 0 1 0 -3.875 -1.249l-0.309 0.96C68.732 23.09 53.934 11.942 36.776 11.942 20.396 11.942 5.665 22.293 0.121 37.698a2.036 2.036 0 0 0 1.226 2.605 2.036 2.036 0 0 0 2.605 -1.226c4.964 -13.795 18.155 -23.064 32.824 -23.064"/></svg>