<svg width="130px" height="130px" viewBox="0 0 20.8 20.8" xmlns="http://www.w3.org/2000/svg" xmlns:xlink="http://www.w3.org/1999/xlink" aria-hidden="true" role="img" class="iconify iconify--noto" preserveAspectRatio="xMidYMid meet"><path d="M1.029 10.785v9.38h18.86V10.749S16.115 8.146 15.941 8.122s-5.242 -4.664 -5.242 -4.664L5.112 7.964z" fill="#f8c778"/><path fill="#f5b03f" d="M1.029 10.775h4.452l-0.005 9.38h0.739l0.005 -11.419L10.588 4.891l4.407 4.03 -0.011 11.234h0.692l0.011 -9.433 4.201 0.029v-0.561L16.057 8.136 10.931 3.634 5.273 8.044 1.032 10.239z"/><path d="M2.129 6.918c-0.029 0.047 -1.162 3.17 -1.183 3.235s0.033 0.141 0.163 0.153 4.613 0 4.613 0l-0.013 -1.914s4.813 -4.332 4.867 -4.332 4.904 4.444 4.916 4.511c0.011 0.065 0.021 1.661 0.021 1.661s4.266 0.033 4.353 0.044 0.109 -0.109 0.033 -0.336 -0.967 -2.974 -1.032 -3.018 -3.582 -0.044 -3.582 -0.044 -4.405 -4.056 -4.482 -4.121 -0.304 -0.164 -0.505 0.037c-0.177 0.177 -4.571 4.116 -4.571 4.116s-3.565 -0.047 -3.598 0.008" fill="#a62714"/><path d="m7.135 13.096 -0.002 7.066h6.883V13.096s-6.882 -0.018 -6.882 0" fill="#cf6150"/><path d="M0.592 20.191c0.06 0.091 0.762 0.049 2.632 0.058s2.415 0.007 2.512 -0.013c0.096 -0.019 0.174 -0.44 0.111 -0.806 -0.07 -0.401 -0.31 -0.78 -0.7 -0.902 -0.522 -0.163 -0.843 -0.013 -1.094 -0.101 -0.25 -0.086 -0.983 -0.453 -1.726 -0.405 -0.637 0.041 -1.09 0.227 -1.485 0.809 -0.424 0.626 -0.289 1.3 -0.25 1.359" fill="#7db240"/><path d="M20.49 20.152c0.096 -0.067 0.088 -1.913 -1.196 -2.054 -0.964 -0.106 -1.216 0.309 -1.378 0.309 -0.164 0 -0.788 -0.304 -1.649 0.029 -1.071 0.414 -1.051 1.62 -1.012 1.736s1.147 0.086 2.67 0.096 2.441 -0.028 2.566 -0.115" fill="#7db240"/><path d="M1.88 11.315h3.037v2.446H1.84s0.019 -2.426 0.041 -2.446" fill="#3e737c"/><path d="M1.84 14.903h3.024v2.366H1.814c0 0.002 0.013 -2.379 0.026 -2.366" fill="#3e737c"/><path d="M2.34 11.762h2.064v1.617H2.314s-0.015 -1.604 0.026 -1.617" fill="#a7d0d7"/><path d="M2.247 15.298h2.182v1.565H2.247z" fill="#a7d0d7"/><path d="M16.196 11.46h3.024v2.433H16.183s0.013 -2.472 0.013 -2.433" fill="#3e737c"/><path d="M16.617 11.88h2.169v1.578h-2.169z" fill="#a7d0d7"/><path d="M16.157 15.047h3.011v2.301H16.157s-0.019 -2.28 0 -2.301" fill="#3e737c"/><path d="M16.63 15.468v1.42h2.064v-1.433s-2.083 -0.007 -2.064 0.013" fill="#a7d0d7"/><path d="m8.135 20.165 -0.002 -6.298h4.956v6.298z" fill="#3e737c"/><path d="M12.503 15.152v-0.829H8.746v0.829z" fill="#a7d0d7"/><g fill="#a7d0d7"><path d="M8.746 15.566h3.757v2.156H8.746z"/><path d="M8.746 18.166h3.757v1.128H8.746z"/></g><path d="M10.446 15.381v4.243h0.429V15.337s-0.4 0.044 -0.429 0.044" fill="#3e737c"/><path d="M10.475 6.51c-1.685 0.015 -2.815 1.271 -2.728 2.886 0.083 1.57 1.329 2.554 2.771 2.514 1.515 -0.042 2.6 -1.258 2.642 -2.699s-1.128 -2.714 -2.684 -2.701" fill="#3e737c"/><path d="M10.433 6.996c-1.371 0 -2.286 1.043 -2.228 2.299 0.055 1.212 0.871 2.129 2.272 2.129 1.285 0 2.13 -1.056 2.156 -2.143 0.028 -1.186 -0.858 -2.285 -2.2 -2.285" fill="#ffffff"/><path d="M10.033 9.337s-0.796 0.67 -0.84 0.747 -0.042 0.206 0.063 0.293c0.107 0.086 0.213 0.036 0.278 -0.015 0.063 -0.05 0.903 -0.739 0.903 -0.739s0.271 -0.005 0.335 -0.327c0.05 -0.257 -0.135 -0.377 -0.135 -0.377s-0.029 -1.537 -0.042 -1.651c-0.011 -0.085 -0.099 -0.164 -0.177 -0.156 -0.078 0.007 -0.156 0.05 -0.164 0.177S10.238 8.889 10.238 8.889s-0.114 0.042 -0.177 0.164c-0.063 0.12 -0.028 0.284 -0.028 0.284" fill="#2f2f2f"/></svg>