<svg version="1.1" id="Layer_1" xmlns="http://www.w3.org/2000/svg" xmlns:xlink="http://www.w3.org/1999/xlink" x="0px" y="0px" viewBox="0 0 130 130" style="enable-background:new 0 0 512 512;" xml:space="preserve" width="130" height="130"><path style="fill:#367596;" points="503.83,32.681 503.83,98.043 449.362,119.83 471.149,32.681 " d="M127.926 8.298L127.926 24.894L114.096 30.426L119.628 8.298Z"/><path style="fill:#5195AF;" points="471.149,32.681 471.149,119.83 305.021,119.83 326.809,32.681 " d="M119.628 8.298L119.628 30.426L77.447 30.426L82.979 8.298Z"/><path style="fill:#27467A;" points="8.17,32.681 8.17,98.043 40.851,119.83 326.809,119.83 326.809,32.681 " d="M2.074 8.298L2.074 24.894L10.372 30.426L82.979 30.426L82.979 8.298Z"/><path style="fill:#A0F6FA;" points="503.83,98.043 503.83,479.319 471.149,479.319 427.574,288.681 471.149,98.043 " d="M127.926 24.894L127.926 121.702L119.628 121.702L108.564 73.298L119.628 24.894Z"/><path x="8.17" y="98.043" style="fill:#D0FBFD;" width="462.979" height="381.277" d="M2.074 24.894H119.628V121.702H2.074V24.894z"/><g><path x="97.171" y="292.548" style="fill:#367596;" width="43.574" height="43.574" d="M24.672 74.28H35.736V85.343H24.672V74.28z"/><path x="97.171" y="368.803" style="fill:#367596;" width="43.574" height="43.574" d="M24.672 93.641H35.736V104.705H24.672V93.641z"/></g><path d="M127.926 6.223H2.074A2.074 2.074 0 0 0 0 8.298v113.404a2.074 2.074 0 0 0 2.074 2.074h125.851a2.074 2.074 0 0 0 2.074 -2.074V99.574c0 -1.146 -0.929 -2.074 -2.074 -2.074s-2.074 0.929 -2.074 2.074v20.053H4.149V26.968h121.702V91.277c0 1.146 0.929 2.074 2.074 2.074s2.074 -0.929 2.074 -2.074V8.298a2.074 2.074 0 0 0 -2.074 -2.074M4.149 10.372h76.755v12.447H4.149zm80.904 12.447V10.372H125.851v12.447z"/><path d="M105.521 14.383c-1.22 0 -2.213 0.993 -2.213 2.213s0.993 2.213 2.213 2.213 2.213 -0.993 2.213 -2.213 -0.993 -2.213 -2.213 -2.213"/><path d="M94.181 14.383c-1.22 0 -2.213 0.993 -2.213 2.213s0.993 2.213 2.213 2.213 2.213 -0.993 2.213 -2.213 -0.993 -2.213 -2.213 -2.213"/><path d="M116.862 14.383c-1.22 0 -2.213 0.993 -2.213 2.213s0.993 2.213 2.213 2.213 2.213 -0.993 2.213 -2.213 -0.993 -2.213 -2.213 -2.213"/><path d="M41.134 62.508a2.074 2.074 0 0 0 1.73 -1.463l4.772 -15.93a2.074 2.074 0 0 0 -3.974 -1.191l-3.423 11.425 -3.299 -5.506a2.075 2.075 0 0 0 -3.559 0l-3.299 5.506L26.659 43.926a2.074 2.074 0 0 0 -2.582 -1.392 2.074 2.074 0 0 0 -1.392 2.582l4.772 15.928a2.075 2.075 0 0 0 3.767 0.471l3.937 -6.571 3.937 6.571a2.077 2.077 0 0 0 2.037 0.993"/><path d="M57.078 62.506q0.129 0.016 0.258 0.016a2.074 2.074 0 0 0 1.779 -1.008l3.937 -6.571 3.937 6.571a2.074 2.074 0 0 0 3.767 -0.471l4.772 -15.93a2.075 2.075 0 0 0 -3.974 -1.191l-3.423 11.425 -3.299 -5.506a2.074 2.074 0 0 0 -3.559 0l-3.299 5.506 -3.422 -11.423a2.074 2.074 0 0 0 -2.582 -1.392 2.074 2.074 0 0 0 -1.392 2.582l4.772 15.928a2.074 2.074 0 0 0 1.73 1.463"/><path d="M102.026 42.528a2.074 2.074 0 0 0 -2.582 1.392l-3.423 11.425 -3.299 -5.506a2.075 2.075 0 0 0 -3.559 0l-3.299 5.506 -3.422 -11.423a2.075 2.075 0 0 0 -3.974 1.191l4.772 15.928a2.075 2.075 0 0 0 3.767 0.471l3.937 -6.571 3.937 6.571a2.074 2.074 0 0 0 3.767 -0.471l4.772 -15.93a2.074 2.074 0 0 0 -1.391 -2.582"/><path d="M37.811 74.279a2.074 2.074 0 0 0 -2.074 -2.074H24.672a2.074 2.074 0 0 0 -2.074 2.074v11.064a2.074 2.074 0 0 0 2.074 2.074h11.064a2.074 2.074 0 0 0 2.074 -2.074v-11.064zm-4.149 8.989h-6.915v-6.915h6.915z"/><path d="M35.736 91.566H24.672a2.074 2.074 0 0 0 -2.074 2.074v11.064a2.074 2.074 0 0 0 2.074 2.074h11.064a2.074 2.074 0 0 0 2.074 -2.074V93.641a2.074 2.074 0 0 0 -2.074 -2.074m-2.075 11.064h-6.915V95.715h6.915z"/><path d="M101.431 77.736h-8.298a2.074 2.074 0 0 0 -2.074 2.074 2.074 2.074 0 0 0 2.074 2.074h8.298a2.074 2.074 0 0 0 2.074 -2.074 2.074 2.074 0 0 0 -2.074 -2.074"/><path d="M84.835 77.736H44.034a2.074 2.074 0 0 0 -2.074 2.074 2.074 2.074 0 0 0 2.074 2.074h40.801a2.074 2.074 0 0 0 2.074 -2.074 2.074 2.074 0 0 0 -2.075 -2.074"/><path d="M101.431 97.098h-8.298a2.074 2.074 0 0 0 -2.074 2.074 2.074 2.074 0 0 0 2.074 2.074h8.298a2.074 2.074 0 0 0 2.074 -2.074 2.074 2.074 0 0 0 -2.074 -2.074"/><path d="M84.835 97.098H44.034a2.074 2.074 0 0 0 -2.074 2.074 2.074 2.074 0 0 0 2.074 2.074h40.801a2.074 2.074 0 0 0 2.074 -2.074 2.074 2.074 0 0 0 -2.075 -2.074"/></svg>