<svg version="1.1" id="Uploaded to svgrepo.com" xmlns="http://www.w3.org/2000/svg" xmlns:xlink="http://www.w3.org/1999/xlink" width="130px" height="130px" viewBox="0 0 5.2 5.2" xml:space="preserve"><style type="text/css">.avocado_een{fill:#231F20;}
	.avocado_zes{fill:#FFFAEE;}
	.avocado_negentien{fill:#E0A838;}
	.avocado_achttien{fill:#D1712A;}
	.avocado_vijf{fill:#DBD2C1;}
	.st0{fill:#EAD13F;}
	.st1{fill:#CC4121;}
	.st2{fill:#A3AEB5;}
	.st3{fill:#788287;}
	.st4{fill:#C3CC6A;}
	.st5{fill:#6F9B45;}
	.st6{fill:#248EBC;}
	.st7{fill:#8D3E93;}
	.st8{fill:#3D3935;}
	.st9{fill:#D36781;}
	.st10{fill:#E598A3;}
	.st11{fill:#716558;}
	.st12{fill:#AF9480;}
	.st13{fill:#231F20;}</style><g><g><path class="avocado_vijf" points="27.5,7.5 27.5,26.5 4.5,26.5 4.5,28.5 29.5,28.5 29.5,7.5 		" d="M4.469 1.219L4.469 4.306L0.731 4.306L0.731 4.631L4.794 4.631L4.794 1.219Z"/></g><path x="2.5" y="5.5" class="avocado_zes" width="25" height="21" d="M0.406 0.894H4.469V4.306H0.406V0.894z"/><g><path x="4.5" y="4.5" class="avocado_achttien" width="9" height="11" d="M0.731 0.731H2.194V2.519H0.731V0.731z"/></g><g><path class="avocado_negentien" points="5.5,23.5 5.5,22.25 9.219,19.461 13,18.516 17,19.516 21.219,18.461 24.5,16 
			24.5,23.5 		" d="M0.894 3.819L0.894 3.616L1.498 3.162L2.113 3.009L2.763 3.171L3.448 3L3.981 2.6L3.981 3.819Z"/></g><path class="avocado_een" d="M1.137 1.625h0.65v0.163H1.137zm0 0.488h0.65v-0.163H1.137zm2.275 0.813 0.65 -0.488v1.463H0.813v-0.325l0.65 -0.488 0.65 -0.163 0.65 0.163zm-0.65 0.33 -0.65 -0.163 -0.579 0.145L0.975 3.656v0.081h2.925v-0.975l-0.416 0.312zM4.875 1.137v3.575H0.65v-0.325H0.325V0.813h0.325V0.65h0.665c0.034 -0.094 0.123 -0.163 0.229 -0.163s0.195 0.068 0.229 0.163H2.275v0.163h2.275v0.325zM0.813 2.438h1.3V0.813h-0.325v0.406c0 0.134 -0.109 0.244 -0.244 0.244S1.3 1.353 1.3 1.219V1.137h0.163v0.081a0.081 0.081 0 0 0 0.163 0V0.813H0.813zM0.488 4.225h3.9V0.975H2.275v1.625H0.65V0.975H0.488zM4.713 1.3h-0.163v3.087H0.813v0.163h3.9z"/></g></svg>