<svg xmlns:dc="http://purl.org/dc/elements/1.1/" xmlns:cc="http://creativecommons.org/ns#" xmlns:rdf="http://www.w3.org/1999/02/22-rdf-syntax-ns#" xmlns:svg="http://www.w3.org/2000/svg" xmlns="http://www.w3.org/2000/svg" xmlns:sodipodi="http://sodipodi.sourceforge.net/DTD/sodipodi-0.dtd" xmlns:inkscape="http://www.inkscape.org/namespaces/inkscape" version="1.1" width="130" height="130" viewBox="0 0 130 130" id="svg2" inkscape:version="0.91 r13725" sodipodi:docname="users.svg"><title id="title3348">users</title><metadata id="metadata199"><rdf:RDF><cc:Work rdf:about=""><dc:format>image/svg+xml</dc:format><dc:type rdf:resource="http://purl.org/dc/dcmitype/StillImage"/><dc:title>users</dc:title></cc:Work></rdf:RDF></metadata><defs id="defs197"/><sodipodi:namedview pagecolor="#ffffff" bordercolor="#666666" borderopacity="1" objecttolerance="10" gridtolerance="10" guidetolerance="10" inkscape:pageopacity="0" inkscape:pageshadow="2" inkscape:window-width="1389" inkscape:window-height="936" id="namedview195" showgrid="true" inkscape:zoom="1.2291667" inkscape:cx="125.46606" inkscape:cy="179.09662" inkscape:window-x="416" inkscape:window-y="846" inkscape:window-maximized="0" inkscape:current-layer="svg2" inkscape:snap-bbox="true" inkscape:bbox-nodes="true" inkscape:object-nodes="true"><inkscape:grid type="xygrid" id="grid4169" spacingx="16" spacingy="16" empspacing="2"/></sodipodi:namedview><path id="circle3342" style="fill-opacity:1;stroke:none;stroke-width:64;stroke-miterlimit:4;stroke-dasharray:none;stroke-opacity:1" d="M120.714 51.071a23.214 23.214 0 0 1 -23.214 23.214 23.214 23.214 0 0 1 -23.214 -23.214 23.214 23.214 0 0 1 23.214 -23.214 23.214 23.214 0 0 1 23.214 23.214M55.714 23.214a23.214 23.214 0 0 1 -23.214 23.214 23.214 23.214 0 0 1 -23.214 -23.214 23.214 23.214 0 0 1 23.214 -23.214 23.214 23.214 0 0 1 23.214 23.214M0 111.429h55.714V74.286h9.286v-18.571h-18.571l-13.929 13.929 -13.929 -13.929H0zm130 -31.429V130H65V83.571h18.571l13.929 13.929 13.929 -13.929h18.571z"/></svg>