<svg version="1.1" id="Layer_1" xmlns="http://www.w3.org/2000/svg" xmlns:xlink="http://www.w3.org/1999/xlink" x="0px" y="0px" viewBox="0 0 130 130" style="enable-background:new 0 0 512 512;" xml:space="preserve" width="130" height="130"><path style="fill:#E4EAF8;" d="M125.517 119.914H4.483C2.007 119.914 0 117.907 0 115.431V14.569c0 -2.476 2.007 -4.483 4.483 -4.483h121.035c2.476 0 4.483 2.007 4.483 4.483V115.431c0 2.476 -2.007 4.483 -4.483 4.483"/><path style="fill:#D5DCED;" d="M130 21.293H0V14.569c0 -2.476 2.007 -4.483 4.483 -4.483h121.035c2.476 0 4.483 2.007 4.483 4.483z"/><g><path style="fill:#FFFFFF;" d="M118.793 66.121H11.207a2.242 2.242 0 0 1 -2.241 -2.241V32.5a2.242 2.242 0 0 1 2.241 -2.241h107.586A2.242 2.242 0 0 1 121.035 32.5v31.379a2.242 2.242 0 0 1 -2.241 2.241"/><path style="fill:#FFFFFF;" d="M118.793 110.948H11.207a2.242 2.242 0 0 1 -2.241 -2.241V77.328a2.242 2.242 0 0 1 2.241 -2.241h107.586a2.242 2.242 0 0 1 2.241 2.241v31.379a2.242 2.242 0 0 1 -2.241 2.241"/></g><path style="fill:#00C3FF;" d="M40.345 66.121H11.207a2.242 2.242 0 0 1 -2.241 -2.241V32.5a2.242 2.242 0 0 1 2.241 -2.241h29.138a2.242 2.242 0 0 1 2.241 2.241v31.379a2.242 2.242 0 0 1 -2.241 2.241"/><path style="fill:#7DF5A5;" d="M40.345 110.948H11.207a2.242 2.242 0 0 1 -2.241 -2.241V77.328a2.242 2.242 0 0 1 2.241 -2.241h29.138a2.242 2.242 0 0 1 2.241 2.241v31.379a2.242 2.242 0 0 1 -2.241 2.241"/><g><path style="fill:#FFFFFF;" d="M33.621 39.224h-5.603a2.241 2.241 0 0 0 -2.241 -2.241 2.241 2.241 0 0 0 -2.241 2.241H17.931c-1.239 0 -2.241 1.004 -2.241 2.241s1.002 2.241 2.241 2.241h9.116c-0.193 1.187 -0.553 2.716 -1.238 4.32 -0.093 -0.218 -0.215 -0.403 -0.301 -0.629a2.239 2.239 0 0 0 -2.891 -1.298c-1.158 0.44 -1.738 1.734 -1.298 2.891a20.566 20.566 0 0 0 1.662 3.397 12.873 12.873 0 0 1 -3.778 2.747 2.239 2.239 0 0 0 -1.051 2.99 2.239 2.239 0 0 0 2.99 1.051 17.316 17.316 0 0 0 4.649 -3.255c1.351 1.323 2.89 2.426 4.618 3.255a2.24 2.24 0 0 0 2.99 -1.051 2.239 2.239 0 0 0 -1.051 -2.99c-1.44 -0.691 -2.678 -1.637 -3.754 -2.771 1.934 -3.198 2.695 -6.528 2.98 -8.657h2.045c1.239 0 2.241 -1.004 2.241 -2.241s-1.003 -2.242 -2.241 -2.242"/><path style="fill:#FFFFFF;" d="m35.794 101.439 -4.058 -16.233a4.474 4.474 0 0 0 -4.349 -3.395h-3.222a4.474 4.474 0 0 0 -4.349 3.395l-4.058 16.233c-0.302 1.202 0.429 2.419 1.631 2.719 1.193 0.299 2.416 -0.432 2.716 -1.631l0.696 -2.785h9.95l0.696 2.785a2.239 2.239 0 0 0 2.716 1.631c1.202 -0.3 1.933 -1.517 1.631 -2.718M21.922 95.259l2.243 -8.965h3.224l2.241 8.965z"/></g><path style="fill:#5B5D6E;" d="M76.207 43.707h-22.414c-1.239 0 -2.241 -1.004 -2.241 -2.241s1.002 -2.241 2.241 -2.241h22.414c1.239 0 2.241 1.004 2.241 2.241s-1.003 2.241 -2.241 2.241"/><g><path style="fill:#707487;" d="M94.138 52.672H53.793a2.241 2.241 0 0 1 -2.241 -2.241 2.241 2.241 0 0 1 2.241 -2.241h40.345a2.241 2.241 0 0 1 2.241 2.241 2.241 2.241 0 0 1 -2.241 2.241"/><path style="fill:#707487;" d="M103.103 43.707h-17.931c-1.239 0 -2.241 -1.004 -2.241 -2.241s1.002 -2.241 2.241 -2.241h17.931c1.239 0 2.241 1.004 2.241 2.241s-1.003 2.241 -2.241 2.241"/></g><path style="fill:#5B5D6E;" d="M71.724 88.535h-17.931c-1.239 0 -2.241 -1.004 -2.241 -2.241s1.002 -2.241 2.241 -2.241h17.931c1.239 0 2.241 1.004 2.241 2.241s-1.003 2.241 -2.241 2.241"/><g><path style="fill:#707487;" d="M85.172 97.5H53.793c-1.239 0 -2.241 -1.004 -2.241 -2.241s1.002 -2.241 2.241 -2.241h31.379c1.239 0 2.241 1.004 2.241 2.241S86.411 97.5 85.172 97.5"/><path style="fill:#707487;" d="M98.621 88.535h-17.931c-1.239 0 -2.241 -1.004 -2.241 -2.241s1.002 -2.241 2.241 -2.241h17.931c1.239 0 2.241 1.004 2.241 2.241s-1.003 2.241 -2.241 2.241"/></g><path style="fill:#E4EAF8;" d="M6.724 19.052h-2.241a2.242 2.242 0 0 1 -2.241 -2.241v-2.241a2.242 2.242 0 0 1 2.241 -2.241h2.241a2.242 2.242 0 0 1 2.241 2.241v2.241a2.242 2.242 0 0 1 -2.241 2.241"/><path style="fill:#FF5050;" d="M107.586 19.052h-2.241a2.242 2.242 0 0 1 -2.241 -2.241v-2.241a2.242 2.242 0 0 1 2.241 -2.241h2.241a2.242 2.242 0 0 1 2.241 2.241v2.241a2.242 2.242 0 0 1 -2.241 2.241"/><path style="fill:#FFF082;" d="M116.552 19.052h-2.241a2.242 2.242 0 0 1 -2.241 -2.241v-2.241a2.242 2.242 0 0 1 2.241 -2.241h2.241a2.242 2.242 0 0 1 2.241 2.241v2.241a2.241 2.241 0 0 1 -2.241 2.241"/><path style="fill:#A0FFB4;" d="M125.517 19.052h-2.241a2.242 2.242 0 0 1 -2.241 -2.241v-2.241a2.242 2.242 0 0 1 2.241 -2.241h2.241a2.242 2.242 0 0 1 2.241 2.241v2.241a2.242 2.242 0 0 1 -2.241 2.241"/></svg>