<svg fill="#000000" xmlns="http://www.w3.org/2000/svg" width="130px" height="130px" viewBox="0 0 8.45 8.45" enable-background="new 0 0 52 52" xml:space="preserve"><g><g><path d="m3.9 1.137 -0.276 -0.276c-0.081 -0.081 -0.195 -0.081 -0.276 0L1.625 2.568l-0.699 -0.683c-0.081 -0.081 -0.195 -0.081 -0.276 0l-0.276 0.276c-0.081 0.081 -0.081 0.195 0 0.276l0.959 0.959c0.081 0.081 0.179 0.114 0.276 0.114s0.195 -0.033 0.276 -0.114L3.9 1.414c0.065 -0.065 0.065 -0.195 0 -0.276"/></g></g><g><path d="M7.865 2.99H4.469c-0.146 0 -0.26 -0.114 -0.26 -0.26v-0.52c0 -0.146 0.114 -0.26 0.26 -0.26h3.396c0.146 0 0.26 0.114 0.26 0.26v0.52c0 0.146 -0.114 0.26 -0.26 0.26"/></g><g><path d="M7.865 5.314H3.689c-0.146 0 -0.26 -0.114 -0.26 -0.26v-0.52c0 -0.146 0.114 -0.26 0.26 -0.26h4.176c0.146 0 0.26 0.114 0.26 0.26v0.52c0 0.146 -0.114 0.26 -0.26 0.26"/></g><g><path d="M2.113 5.314H1.593c-0.146 0 -0.26 -0.114 -0.26 -0.26v-0.52c0 -0.146 0.114 -0.26 0.26 -0.26H2.113c0.146 0 0.26 0.114 0.26 0.26v0.52c0.016 0.146 -0.114 0.26 -0.26 0.26"/></g><g><path d="M2.113 7.638H1.593c-0.146 0 -0.26 -0.114 -0.26 -0.26v-0.52c0 -0.146 0.114 -0.26 0.26 -0.26H2.113c0.146 0 0.26 0.114 0.26 0.26v0.52c0.016 0.146 -0.114 0.26 -0.26 0.26"/></g><g><path d="M7.865 7.638H3.689c-0.146 0 -0.26 -0.114 -0.26 -0.26v-0.52c0 -0.146 0.114 -0.26 0.26 -0.26h4.176c0.146 0 0.26 0.114 0.26 0.26v0.52c0 0.146 -0.114 0.26 -0.26 0.26"/></g></svg>