<svg width="130px" height="130px" viewBox="0 0 5.85 5.85" xmlns="http://www.w3.org/2000/svg" xmlns:xlink="http://www.w3.org/1999/xlink" aria-hidden="true" role="img" class="iconify iconify--twemoji" preserveAspectRatio="xMidYMid meet"><path fill="#D99E82" d="M4.875 4.225a0.65 0.65 0 0 1 -0.65 0.65H0.65a0.65 0.65 0 0 1 -0.65 -0.65V0.65a0.65 0.65 0 0 1 0.65 -0.65h3.575a0.65 0.65 0 0 1 0.65 0.65z"/><path fill="#5C913B" d="M4.55 4.225a0.325 0.325 0 0 1 -0.325 0.325H0.65a0.325 0.325 0 0 1 -0.325 -0.325V0.65a0.325 0.325 0 0 1 0.325 -0.325h3.575a0.325 0.325 0 0 1 0.325 0.325z"/><path fill="#FFF" d="M1.221 1.446c-0.013 0.016 -0.03 0.039 -0.03 0.066 0 0.06 0.044 0.086 0.101 0.086h0.434c0.049 0 0.094 -0.026 0.094 -0.086s-0.044 -0.086 -0.101 -0.086H1.481c0.11 -0.139 0.312 -0.318 0.312 -0.499 0 -0.165 -0.129 -0.27 -0.288 -0.27s-0.305 0.131 -0.305 0.295c0 0.051 0.033 0.095 0.095 0.095 0.125 0 0.053 -0.21 0.203 -0.21 0.053 0 0.094 0.047 0.094 0.1 0 0.047 -0.022 0.087 -0.046 0.121 -0.099 0.143 -0.216 0.26 -0.324 0.388m-0.212 0.883H0.82v-0.189c0 -0.047 -0.03 -0.078 -0.078 -0.078 -0.048 0 -0.078 0.031 -0.078 0.078v0.189H0.476c-0.048 0 -0.078 0.031 -0.078 0.078 0 0.047 0.03 0.078 0.078 0.078H0.665v0.188c0 0.047 0.03 0.078 0.078 0.078 0.048 0 0.078 -0.031 0.078 -0.078V2.485h0.188c0.048 0 0.078 -0.031 0.078 -0.078 0 -0.047 -0.03 -0.078 -0.078 -0.078m0.71 0.235H1.481c0.111 -0.139 0.312 -0.318 0.312 -0.499 0 -0.165 -0.129 -0.27 -0.288 -0.27s-0.305 0.131 -0.305 0.295c0 0.051 0.033 0.095 0.095 0.095 0.125 0 0.053 -0.21 0.203 -0.21 0.053 0 0.094 0.047 0.094 0.1 0 0.047 -0.022 0.087 -0.046 0.121 -0.099 0.143 -0.216 0.26 -0.324 0.389 -0.013 0.016 -0.03 0.039 -0.03 0.066 0 0.06 0.044 0.086 0.101 0.086h0.434c0.049 0 0.094 -0.026 0.094 -0.086 0 -0.06 -0.044 -0.086 -0.101 -0.086m0.137 0.519H0.501a0.081 0.081 0 0 1 0 -0.163h1.354a0.081 0.081 0 0 1 0 0.163"/><path fill="#CCD6DD" d="M5.85 5.85v-0.325a0.975 0.975 0 0 0 -0.975 -0.975H2.275a0.975 0.975 0 0 0 -0.975 0.975v0.325z"/><path fill="#99AAB5" d="M3.587 5.006s0.536 0.145 0.739 0.212c0.026 0.009 -0.155 -0.343 -0.155 -0.343h-1.211s-0.11 0.251 -0.174 0.357c0.319 -0.101 0.78 -0.241 0.78 -0.241"/><path fill="#FFDC5D" d="M2.867 4.566c0.126 0.091 0.196 0.267 0.374 0.311 0.053 0.114 0.121 0.266 0.182 0.402 0.058 0.129 0.241 0.127 0.297 -0.003 0.058 -0.137 0.123 -0.287 0.175 -0.399 0.18 -0.072 0.262 -0.218 0.39 -0.311V3.947h-1.417z"/><path fill="#F9CA55" d="M2.865 4.221c0.198 0.223 0.443 0.284 0.709 0.284s0.511 -0.061 0.709 -0.284v-0.567h-1.418v0.567z"/><path fill="#FFAC33" d="M4.181 0.54c-0.313 -0.101 -1.049 -0.074 -1.233 0.166 -0.478 0.009 -1.04 0.442 -1.113 1.012 -0.073 0.565 0.09 0.827 0.147 1.251 0.065 0.481 0.336 0.635 0.552 0.699 0.311 0.411 0.642 0.393 1.197 0.393 1.084 0 1.601 -0.725 1.646 -1.958 0.028 -0.745 -0.41 -1.31 -1.196 -1.564"/><path fill="#FFDC5D" d="M4.801 2.157c-0.105 -0.145 -0.239 -0.262 -0.534 -0.304 0.111 0.051 0.216 0.225 0.23 0.322s0.028 0.175 -0.06 0.078c-0.35 -0.387 -0.732 -0.235 -1.109 -0.471 -0.264 -0.165 -0.344 -0.348 -0.344 -0.348s-0.032 0.244 -0.432 0.492c-0.116 0.072 -0.254 0.232 -0.331 0.469 -0.055 0.17 -0.038 0.322 -0.038 0.581 0 0.757 0.624 1.394 1.394 1.394s1.394 -0.642 1.394 -1.394c0 -0.471 -0.05 -0.655 -0.169 -0.821"/><path fill="#C1694F" d="M3.731 3.365h-0.31a0.078 0.078 0 1 1 0 -0.155h0.31a0.078 0.078 0 1 1 0 0.155"/><path fill="#662113" d="M2.957 2.823a0.155 0.155 0 0 1 -0.155 -0.155v-0.155a0.155 0.155 0 0 1 0.31 0v0.155a0.154 0.154 0 0 1 -0.155 0.155m1.239 0a0.155 0.155 0 0 1 -0.155 -0.155v-0.155a0.155 0.155 0 0 1 0.31 0v0.155a0.155 0.155 0 0 1 -0.155 0.155"/><path fill="#C1694F" d="M3.597 4.011c-0.448 0 -0.585 -0.115 -0.608 -0.138a0.106 0.106 0 0 1 0.147 -0.154c0.008 0.006 0.117 0.079 0.461 0.079 0.358 0 0.461 -0.079 0.462 -0.08a0.104 0.104 0 0 1 0.148 0.002 0.109 0.109 0 0 1 -0.002 0.152c-0.023 0.023 -0.16 0.138 -0.608 0.138"/><path fill="#F5F8FA" d="M2.8 4.327c0.092 0.092 0.44 0.55 0.44 0.55s-0.193 0.113 -0.424 0.326c-0.084 0.077 -0.219 0.009 -0.209 -0.105 0.02 -0.219 0.04 -0.473 0.037 -0.574 -0.002 -0.049 0.112 -0.241 0.156 -0.196m1.533 0c-0.092 0.092 -0.44 0.55 -0.44 0.55s0.193 0.113 0.424 0.326c0.084 0.077 0.219 0.009 0.209 -0.105 -0.02 -0.219 -0.04 -0.473 -0.037 -0.574 0.002 -0.049 -0.112 -0.241 -0.156 -0.196"/></svg>