<svg width="130px" height="130px" viewBox="0 0 166.4 166.4" class="icon" style="vertical-align: middle;fill: #000000;overflow: hidden;" version="1.1" xmlns="http://www.w3.org/2000/svg"><path d="M23.166 88.621a65.091 65.091 0 1 0 130.195 0 65.091 65.091 0 1 0 -130.195 0" fill="#8F93FB"/><path d="M128.206 37.232c9.048 11.531 20.67 33.241 11.934 62.01 -7.566 24.934 -28.613 43.459 -54.47 46.722 -9.295 1.17 -20.007 0.754 -32.123 -2.288a65.091 65.091 0 0 0 74.646 -106.444" fill="#787CF5"/><path d="M123.396 57.967c1.924 10.153 4.134 34.97 -12.129 52.884 -10.27 11.31 -39.975 19.643 -62.777 5.356a47.671 47.671 0 0 0 74.919 -58.253" fill="#E8A200"/><path d="M83.2 156.208A72.722 72.722 0 0 1 12.779 65.663a2.47 2.47 0 0 1 3.029 -1.807 2.509 2.509 0 0 1 1.807 3.042 67.6 67.6 0 0 0 -2.08 16.666c0 37.31 30.355 67.652 67.652 67.652s67.652 -30.355 67.652 -67.652 -30.342 -67.652 -67.652 -67.652c-17.81 0 -34.606 6.851 -47.333 19.305a2.483 2.483 0 1 1 -3.484 -3.562A72.15 72.15 0 0 1 83.2 10.907a72.722 72.722 0 0 1 72.644 72.644A72.722 72.722 0 0 1 83.2 156.195" fill="#333333"/><path d="M19.045 57.616a2.6 2.6 0 0 1 -1.001 -0.221 2.47 2.47 0 0 1 -1.274 -3.289 78 78 0 0 1 3.25 -6.435 2.47 2.47 0 0 1 3.406 -0.936c1.196 0.676 1.612 2.21 0.936 3.406a65 65 0 0 0 -3.016 5.98 2.47 2.47 0 0 1 -2.275 1.495" fill="#333333"/><path d="M53.547 77.428a2.08 2.08 0 0 1 -2.028 -2.6 39 39 0 0 1 1.261 -3.952 2.08 2.08 0 1 1 3.9 1.482 39 39 0 0 0 -1.118 3.51 2.08 2.08 0 0 1 -2.015 1.56m4.849 -10.66a2.08 2.08 0 0 1 -1.69 -3.289 31.85 31.85 0 0 1 17.992 -12.415c1.118 -0.221 2.223 0.494 2.457 1.625s-0.494 2.223 -1.612 2.457c-0.13 0.026 -9.269 2.041 -15.431 10.738a2.08 2.08 0 0 1 -1.716 0.884" fill="#FFFFFF"/><path d="M129.805 75.556a46.345 46.345 0 0 0 -40.326 -37.895 7.696 7.696 0 1 0 -1.781 15.301c12.714 1.469 23.036 10.53 26.312 22.581h-8.619l16.276 16.003 16.276 -16.003h-8.151z" fill="#ECD300"/><path d="m121.667 91.559 -6.279 -6.175a9.1 9.1 0 0 0 -0.494 1.924 30.81 30.81 0 0 1 -22.841 26.39v-8.801L76.05 121.173l16.003 16.276v-7.995a46.15 46.15 0 0 0 38.142 -40.365 7.8 7.8 0 0 0 -1.066 -4.862z" fill="#FFFFFF"/><path d="M80.574 114.504a30.81 30.81 0 0 1 -26.416 -22.945h8.58L46.449 75.556 30.173 91.559h8.229a46.215 46.215 0 0 0 40.391 38.259q0.455 0.052 0.897 0.052a7.709 7.709 0 0 0 7.644 -6.812 7.709 7.709 0 0 0 -6.76 -8.541" fill="#76BFFF"/><path d="m129.142 84.201 -7.475 7.345 -6.279 -6.175a9.1 9.1 0 0 0 -0.494 1.924 30.81 30.81 0 0 1 -22.841 26.39v-8.801L76.05 121.16l16.003 16.276v-7.995a46.15 46.15 0 0 0 38.142 -40.365 7.8 7.8 0 0 0 -1.066 -4.875" fill="#EAAB44"/><path d="m46.449 75.556 6.487 6.383a7.8 7.8 0 0 0 0.429 -1.768A30.94 30.94 0 0 1 76.05 53.82v8.398l16.003 -16.276 -15.99 -16.263v8.385a46.215 46.215 0 0 0 -37.999 40.339 7.8 7.8 0 0 0 0.871 4.537z" fill="#EE8385"/><path d="M140.244 74.607a2.47 2.47 0 0 0 -2.314 -1.547h-6.097a48.49 48.49 0 0 0 -42.081 -37.869 10.4 10.4 0 0 0 -4.355 0.442l-7.566 -7.709a2.47 2.47 0 0 0 -2.73 -0.559 2.47 2.47 0 0 0 -1.547 2.314v6.331a48.1 48.1 0 0 0 -14.183 5.551 2.47 2.47 0 0 0 -0.884 3.406 2.47 2.47 0 0 0 3.406 0.884 44.2 44.2 0 0 1 14.599 -5.343 2.47 2.47 0 0 0 2.067 -2.457v-2.275l10.01 10.179 -9.997 10.179v-2.301a2.6 2.6 0 0 0 -0.975 -1.976 2.6 2.6 0 0 0 -2.158 -0.429 33.15 33.15 0 0 0 -24.05 25.48l-3.172 -3.107a2.47 2.47 0 0 0 -3.497 0l-4.043 3.978a44.2 44.2 0 0 1 7.826 -19.682 2.47 2.47 0 0 0 -0.572 -3.484 2.47 2.47 0 0 0 -3.484 0.572 49.4 49.4 0 0 0 -8.853 22.958 10.4 10.4 0 0 0 0.403 4.225l-7.579 7.423a2.509 2.509 0 0 0 1.755 4.277h6.162a48.49 48.49 0 0 0 42.159 38.233q0.585 0.065 1.183 0.065a10.4 10.4 0 0 0 3.302 -0.585l7.293 7.41a2.47 2.47 0 0 0 2.73 0.572 2.47 2.47 0 0 0 1.547 -2.314v-5.941a48.49 48.49 0 0 0 38.129 -42.133 10.4 10.4 0 0 0 -0.546 -4.615l7.54 -7.423a2.47 2.47 0 0 0 0.572 -2.743m-12.909 1.391a2.47 2.47 0 0 0 2.457 2.054h2.041l-10.179 10.01 -10.179 -10.01h2.535a2.47 2.47 0 0 0 1.976 -0.988 2.6 2.6 0 0 0 0.429 -2.171 33.28 33.28 0 0 0 -25.753 -23.972l3.172 -3.224a2.47 2.47 0 0 0 0 -3.497l-3.887 -3.939a43.55 43.55 0 0 1 37.401 35.75m-71.5 4.472a28.34 28.34 0 0 1 17.719 -23.192v4.953c0 1.014 0.611 1.924 1.547 2.314a2.47 2.47 0 0 0 2.73 -0.559l8.554 -8.697q0.494 0.117 1.027 0.169a28.34 28.34 0 0 1 23.14 17.602h-5.161a2.47 2.47 0 0 0 -2.314 1.547 2.47 2.47 0 0 0 0.559 2.73l8.944 8.788q-0.104 0.442 -0.169 0.884a28.21 28.21 0 0 1 -17.862 23.257v-5.369a2.47 2.47 0 0 0 -1.547 -2.314 2.47 2.47 0 0 0 -2.73 0.559l-8.84 8.983 -0.585 -0.104a28.21 28.21 0 0 1 -23.296 -17.966h5.161c1.014 0 1.924 -0.611 2.314 -1.547s0.169 -2.015 -0.559 -2.73l-8.762 -8.619q0.078 -0.351 0.13 -0.702m-14.976 10.686a2.47 2.47 0 0 0 -2.457 -2.08h-2.132l4.407 -4.329 5.772 -5.668 10.179 10.01h-2.496a2.6 2.6 0 0 0 -1.976 0.962 2.6 2.6 0 0 0 -0.442 2.158 33.15 33.15 0 0 0 25.428 24.297l-2.886 2.938a2.47 2.47 0 0 0 0 3.497l4.29 4.355a43.55 43.55 0 0 1 -37.687 -36.14m86.814 -2.002a43.485 43.485 0 0 1 -36.049 37.843 2.47 2.47 0 0 0 -2.067 2.457v1.898l-10.01 -10.179 10.01 -10.179v2.704a2.509 2.509 0 0 0 3.133 2.418 33.15 33.15 0 0 0 24.245 -25.701l2.977 2.925a2.47 2.47 0 0 0 3.497 0z" fill="#333333"/><path d="M51.337 53.378a2.6 2.6 0 0 0 1.768 -0.728 39 39 0 0 1 1.495 -1.417 2.47 2.47 0 0 0 0.169 -3.523 2.47 2.47 0 0 0 -3.523 -0.169 52 52 0 0 0 -1.651 1.586 2.47 2.47 0 0 0 0 3.523 2.6 2.6 0 0 0 1.768 0.741" fill="#333333"/><path d="M61.828 54.249a2.08 2.08 0 0 1 -1.443 -0.585 2.08 2.08 0 0 1 -0.052 -2.951c5.057 -5.239 11.323 -6.136 11.583 -6.188a2.08 2.08 0 0 1 0.572 4.121c-0.078 0.013 -5.148 0.793 -9.165 4.953a2.08 2.08 0 0 1 -1.495 0.637m-11.622 50.388a2.08 2.08 0 0 1 -1.625 -0.78 21.58 21.58 0 0 1 -4.68 -12.272 2.08 2.08 0 0 1 2.054 -2.106h0.026a2.08 2.08 0 0 1 2.08 2.041c0 0.091 0.156 5.213 3.757 9.724a2.08 2.08 0 0 1 -0.312 2.925 2.08 2.08 0 0 1 -1.3 0.468m71.825 -28.483a2.08 2.08 0 0 1 -2.08 -1.989c-0.013 -0.104 -0.325 -5.213 -4.069 -9.594a2.08 2.08 0 0 1 0.221 -2.925 2.08 2.08 0 0 1 2.938 0.221c4.732 5.538 5.057 11.843 5.07 12.116a2.08 2.08 0 0 1 -1.989 2.158z" fill="#FFFFFF"/><path d="M93.223 123.344h-0.104a2.08 2.08 0 0 1 -2.028 -2.119 2.08 2.08 0 0 1 2.119 -2.041c0.026 -0.013 5.2 0.026 9.828 -3.445a2.08 2.08 0 1 1 2.496 3.328 21.71 21.71 0 0 1 -12.311 4.277" fill="#FFFFFF"/></svg>